<mxfile host="app.diagrams.net" agent="Mozilla/5.0 (Windows NT 10.0; Win64; x64) AppleWebKit/537.36 (KHTML, like Gecko) Chrome/128.0.0.0 Safari/537.36" version="24.7.14">
  <diagram name="Page-1" id="e56a1550-8fbb-45ad-956c-1786394a9013">
    <mxGraphModel dx="3094" dy="1903" grid="0" gridSize="10" guides="1" tooltips="1" connect="1" arrows="1" fold="1" page="0" pageScale="1" pageWidth="1100" pageHeight="850" background="none" math="0" shadow="0">
      <root>
        <mxCell id="0" />
        <mxCell id="1" parent="0" />
        <mxCell id="Q_0pFDTJ4Ten63mDGmTa-156" style="edgeStyle=orthogonalEdgeStyle;rounded=0;orthogonalLoop=1;jettySize=auto;html=1;entryX=0;entryY=0.5;entryDx=0;entryDy=0;startArrow=ERzeroToOne;startFill=0;endArrow=ERoneToMany;endFill=0;labelBackgroundColor=none;strokeColor=#788AA3;fontColor=default;fontSize=14;" parent="1" source="2e49270ec7c68f3f-8" target="Q_0pFDTJ4Ten63mDGmTa-75" edge="1">
          <mxGeometry relative="1" as="geometry" />
        </mxCell>
        <mxCell id="2e49270ec7c68f3f-8" value="Role" style="swimlane;html=1;fontStyle=0;childLayout=stackLayout;horizontal=1;startSize=26;fillColor=#B2C9AB;horizontalStack=0;resizeParent=1;resizeLast=0;collapsible=1;marginBottom=0;swimlaneFillColor=#ffffff;align=center;rounded=0;shadow=0;comic=0;labelBackgroundColor=none;strokeWidth=1;fontFamily=Verdana;fontSize=14;swimlaneLine=1;strokeColor=#788AA3;fontColor=#46495D;" parent="1" vertex="1">
          <mxGeometry x="-130" y="233" width="160" height="84" as="geometry" />
        </mxCell>
        <mxCell id="2e49270ec7c68f3f-9" value="role_id" style="shape=partialRectangle;top=0;left=0;right=0;bottom=1;html=1;align=left;verticalAlign=middle;fillColor=none;spacingLeft=34;spacingRight=4;whiteSpace=wrap;overflow=hidden;rotatable=0;points=[[0,0.5],[1,0.5]];portConstraint=eastwest;dropTarget=0;fontStyle=5;labelBackgroundColor=none;strokeColor=#788AA3;fontColor=#46495D;fontSize=14;" parent="2e49270ec7c68f3f-8" vertex="1">
          <mxGeometry y="26" width="160" height="30" as="geometry" />
        </mxCell>
        <mxCell id="2e49270ec7c68f3f-10" value="PK" style="shape=partialRectangle;top=0;left=0;bottom=0;html=1;fillColor=none;align=left;verticalAlign=middle;spacingLeft=4;spacingRight=4;whiteSpace=wrap;overflow=hidden;rotatable=0;points=[];portConstraint=eastwest;part=1;labelBackgroundColor=none;strokeColor=#788AA3;fontColor=#46495D;fontSize=14;" parent="2e49270ec7c68f3f-9" vertex="1" connectable="0">
          <mxGeometry width="30" height="30" as="geometry" />
        </mxCell>
        <mxCell id="2e49270ec7c68f3f-13" value="role_name" style="shape=partialRectangle;top=0;left=0;right=0;bottom=0;html=1;align=left;verticalAlign=top;fillColor=none;spacingLeft=34;spacingRight=4;whiteSpace=wrap;overflow=hidden;rotatable=0;points=[[0,0.5],[1,0.5]];portConstraint=eastwest;dropTarget=0;labelBackgroundColor=none;strokeColor=#788AA3;fontColor=#46495D;fontSize=14;" parent="2e49270ec7c68f3f-8" vertex="1">
          <mxGeometry y="56" width="160" height="26" as="geometry" />
        </mxCell>
        <mxCell id="2e49270ec7c68f3f-14" value="" style="shape=partialRectangle;top=0;left=0;bottom=0;html=1;fillColor=none;align=left;verticalAlign=top;spacingLeft=4;spacingRight=4;whiteSpace=wrap;overflow=hidden;rotatable=0;points=[];portConstraint=eastwest;part=1;labelBackgroundColor=none;strokeColor=#788AA3;fontColor=#46495D;fontSize=14;" parent="2e49270ec7c68f3f-13" vertex="1" connectable="0">
          <mxGeometry width="30" height="26" as="geometry" />
        </mxCell>
        <mxCell id="Q_0pFDTJ4Ten63mDGmTa-154" style="edgeStyle=orthogonalEdgeStyle;rounded=0;orthogonalLoop=1;jettySize=auto;html=1;entryX=0.75;entryY=0;entryDx=0;entryDy=0;endArrow=ERzeroToOne;endFill=0;startArrow=ERoneToMany;startFill=0;exitX=0.75;exitY=1;exitDx=0;exitDy=0;labelBackgroundColor=none;strokeColor=#788AA3;fontColor=default;fontSize=14;" parent="1" source="2e49270ec7c68f3f-19" target="Q_0pFDTJ4Ten63mDGmTa-72" edge="1">
          <mxGeometry relative="1" as="geometry" />
        </mxCell>
        <mxCell id="2e49270ec7c68f3f-19" value="Search" style="swimlane;html=1;fontStyle=0;childLayout=stackLayout;horizontal=1;startSize=26;fillColor=#B2C9AB;horizontalStack=0;resizeParent=1;resizeLast=0;collapsible=1;marginBottom=0;swimlaneFillColor=#ffffff;align=center;rounded=0;shadow=0;comic=0;labelBackgroundColor=none;strokeWidth=1;fontFamily=Verdana;fontSize=14;strokeColor=#788AA3;fontColor=#46495D;" parent="1" vertex="1">
          <mxGeometry x="360" y="-220" width="160" height="162" as="geometry" />
        </mxCell>
        <mxCell id="2e49270ec7c68f3f-20" value="search_id" style="shape=partialRectangle;top=0;left=0;right=0;bottom=1;html=1;align=left;verticalAlign=middle;fillColor=none;spacingLeft=34;spacingRight=4;whiteSpace=wrap;overflow=hidden;rotatable=0;points=[[0,0.5],[1,0.5]];portConstraint=eastwest;dropTarget=0;fontStyle=5;labelBackgroundColor=none;strokeColor=#788AA3;fontColor=#46495D;fontSize=14;" parent="2e49270ec7c68f3f-19" vertex="1">
          <mxGeometry y="26" width="160" height="30" as="geometry" />
        </mxCell>
        <mxCell id="2e49270ec7c68f3f-21" value="PK" style="shape=partialRectangle;top=0;left=0;bottom=0;html=1;fillColor=none;align=left;verticalAlign=middle;spacingLeft=4;spacingRight=4;whiteSpace=wrap;overflow=hidden;rotatable=0;points=[];portConstraint=eastwest;part=1;labelBackgroundColor=none;strokeColor=#788AA3;fontColor=#46495D;fontSize=14;" parent="2e49270ec7c68f3f-20" vertex="1" connectable="0">
          <mxGeometry width="30" height="30" as="geometry" />
        </mxCell>
        <mxCell id="2e49270ec7c68f3f-22" value="user_id" style="shape=partialRectangle;top=0;left=0;right=0;bottom=0;html=1;align=left;verticalAlign=top;fillColor=none;spacingLeft=34;spacingRight=4;whiteSpace=wrap;overflow=hidden;rotatable=0;points=[[0,0.5],[1,0.5]];portConstraint=eastwest;dropTarget=0;labelBackgroundColor=none;strokeColor=#788AA3;fontColor=#46495D;fontSize=14;" parent="2e49270ec7c68f3f-19" vertex="1">
          <mxGeometry y="56" width="160" height="26" as="geometry" />
        </mxCell>
        <mxCell id="2e49270ec7c68f3f-23" value="FK" style="shape=partialRectangle;top=0;left=0;bottom=0;html=1;fillColor=none;align=left;verticalAlign=top;spacingLeft=4;spacingRight=4;whiteSpace=wrap;overflow=hidden;rotatable=0;points=[];portConstraint=eastwest;part=1;labelBackgroundColor=none;strokeColor=#788AA3;fontColor=#46495D;fontSize=14;" parent="2e49270ec7c68f3f-22" vertex="1" connectable="0">
          <mxGeometry width="30" height="26" as="geometry" />
        </mxCell>
        <mxCell id="2e49270ec7c68f3f-24" value="search_date" style="shape=partialRectangle;top=0;left=0;right=0;bottom=0;html=1;align=left;verticalAlign=top;fillColor=none;spacingLeft=34;spacingRight=4;whiteSpace=wrap;overflow=hidden;rotatable=0;points=[[0,0.5],[1,0.5]];portConstraint=eastwest;dropTarget=0;labelBackgroundColor=none;strokeColor=#788AA3;fontColor=#46495D;fontSize=14;" parent="2e49270ec7c68f3f-19" vertex="1">
          <mxGeometry y="82" width="160" height="26" as="geometry" />
        </mxCell>
        <mxCell id="2e49270ec7c68f3f-25" value="" style="shape=partialRectangle;top=0;left=0;bottom=0;html=1;fillColor=none;align=left;verticalAlign=top;spacingLeft=4;spacingRight=4;whiteSpace=wrap;overflow=hidden;rotatable=0;points=[];portConstraint=eastwest;part=1;labelBackgroundColor=none;strokeColor=#788AA3;fontColor=#46495D;fontSize=14;" parent="2e49270ec7c68f3f-24" vertex="1" connectable="0">
          <mxGeometry width="30" height="26" as="geometry" />
        </mxCell>
        <mxCell id="2e49270ec7c68f3f-26" value="search_keywords" style="shape=partialRectangle;top=0;left=0;right=0;bottom=0;html=1;align=left;verticalAlign=top;fillColor=none;spacingLeft=34;spacingRight=4;whiteSpace=wrap;overflow=hidden;rotatable=0;points=[[0,0.5],[1,0.5]];portConstraint=eastwest;dropTarget=0;labelBackgroundColor=none;strokeColor=#788AA3;fontColor=#46495D;fontSize=14;" parent="2e49270ec7c68f3f-19" vertex="1">
          <mxGeometry y="108" width="160" height="26" as="geometry" />
        </mxCell>
        <mxCell id="2e49270ec7c68f3f-27" value="" style="shape=partialRectangle;top=0;left=0;bottom=0;html=1;fillColor=none;align=left;verticalAlign=top;spacingLeft=4;spacingRight=4;whiteSpace=wrap;overflow=hidden;rotatable=0;points=[];portConstraint=eastwest;part=1;labelBackgroundColor=none;strokeColor=#788AA3;fontColor=#46495D;fontSize=14;" parent="2e49270ec7c68f3f-26" vertex="1" connectable="0">
          <mxGeometry width="30" height="26" as="geometry" />
        </mxCell>
        <mxCell id="Q_0pFDTJ4Ten63mDGmTa-55" value="status" style="shape=partialRectangle;top=0;left=0;right=0;bottom=0;html=1;align=left;verticalAlign=top;fillColor=none;spacingLeft=34;spacingRight=4;whiteSpace=wrap;overflow=hidden;rotatable=0;points=[[0,0.5],[1,0.5]];portConstraint=eastwest;dropTarget=0;labelBackgroundColor=none;strokeColor=#788AA3;fontColor=#46495D;fontSize=14;" parent="2e49270ec7c68f3f-19" vertex="1">
          <mxGeometry y="134" width="160" height="26" as="geometry" />
        </mxCell>
        <mxCell id="Q_0pFDTJ4Ten63mDGmTa-56" value="" style="shape=partialRectangle;top=0;left=0;bottom=0;html=1;fillColor=none;align=left;verticalAlign=top;spacingLeft=4;spacingRight=4;whiteSpace=wrap;overflow=hidden;rotatable=0;points=[];portConstraint=eastwest;part=1;labelBackgroundColor=none;strokeColor=#788AA3;fontColor=#46495D;fontSize=14;" parent="Q_0pFDTJ4Ten63mDGmTa-55" vertex="1" connectable="0">
          <mxGeometry width="30" height="26" as="geometry" />
        </mxCell>
        <mxCell id="Q_0pFDTJ4Ten63mDGmTa-151" style="edgeStyle=orthogonalEdgeStyle;rounded=0;orthogonalLoop=1;jettySize=auto;html=1;entryX=0.5;entryY=0;entryDx=0;entryDy=0;endArrow=ERoneToMany;endFill=0;startArrow=ERmandOne;startFill=0;labelBackgroundColor=none;strokeColor=#788AA3;fontColor=default;fontSize=14;" parent="1" source="2e49270ec7c68f3f-30" target="Q_0pFDTJ4Ten63mDGmTa-113" edge="1">
          <mxGeometry relative="1" as="geometry" />
        </mxCell>
        <mxCell id="2e49270ec7c68f3f-30" value="Article" style="swimlane;html=1;fontStyle=0;childLayout=stackLayout;horizontal=1;startSize=26;fillColor=#B2C9AB;horizontalStack=0;resizeParent=1;resizeLast=0;collapsible=1;marginBottom=0;swimlaneFillColor=#ffffff;align=center;rounded=0;shadow=0;comic=0;labelBackgroundColor=none;strokeWidth=1;fontFamily=Verdana;fontSize=14;strokeColor=#788AA3;fontColor=#46495D;" parent="1" vertex="1">
          <mxGeometry x="660" y="270" width="160" height="316" as="geometry" />
        </mxCell>
        <mxCell id="2e49270ec7c68f3f-31" value="article_id" style="shape=partialRectangle;top=0;left=0;right=0;bottom=1;html=1;align=left;verticalAlign=middle;fillColor=none;spacingLeft=34;spacingRight=4;whiteSpace=wrap;overflow=hidden;rotatable=0;points=[[0,0.5],[1,0.5]];portConstraint=eastwest;dropTarget=0;fontStyle=5;labelBackgroundColor=none;strokeColor=#788AA3;fontColor=#46495D;fontSize=14;" parent="2e49270ec7c68f3f-30" vertex="1">
          <mxGeometry y="26" width="160" height="30" as="geometry" />
        </mxCell>
        <mxCell id="2e49270ec7c68f3f-32" value="PK" style="shape=partialRectangle;top=0;left=0;bottom=0;html=1;fillColor=none;align=left;verticalAlign=middle;spacingLeft=4;spacingRight=4;whiteSpace=wrap;overflow=hidden;rotatable=0;points=[];portConstraint=eastwest;part=1;labelBackgroundColor=none;strokeColor=#788AA3;fontColor=#46495D;fontSize=14;" parent="2e49270ec7c68f3f-31" vertex="1" connectable="0">
          <mxGeometry width="30" height="30" as="geometry" />
        </mxCell>
        <mxCell id="2e49270ec7c68f3f-33" value="source_id" style="shape=partialRectangle;top=0;left=0;right=0;bottom=0;html=1;align=left;verticalAlign=top;fillColor=none;spacingLeft=34;spacingRight=4;whiteSpace=wrap;overflow=hidden;rotatable=0;points=[[0,0.5],[1,0.5]];portConstraint=eastwest;dropTarget=0;labelBackgroundColor=none;strokeColor=#788AA3;fontColor=#46495D;fontSize=14;" parent="2e49270ec7c68f3f-30" vertex="1">
          <mxGeometry y="56" width="160" height="26" as="geometry" />
        </mxCell>
        <mxCell id="2e49270ec7c68f3f-34" value="FK" style="shape=partialRectangle;top=0;left=0;bottom=0;html=1;fillColor=none;align=left;verticalAlign=top;spacingLeft=4;spacingRight=4;whiteSpace=wrap;overflow=hidden;rotatable=0;points=[];portConstraint=eastwest;part=1;labelBackgroundColor=none;strokeColor=#788AA3;fontColor=#46495D;fontSize=14;" parent="2e49270ec7c68f3f-33" vertex="1" connectable="0">
          <mxGeometry width="30" height="26" as="geometry" />
        </mxCell>
        <mxCell id="2e49270ec7c68f3f-35" value="search_id" style="shape=partialRectangle;top=0;left=0;right=0;bottom=0;html=1;align=left;verticalAlign=top;fillColor=none;spacingLeft=34;spacingRight=4;whiteSpace=wrap;overflow=hidden;rotatable=0;points=[[0,0.5],[1,0.5]];portConstraint=eastwest;dropTarget=0;labelBackgroundColor=none;strokeColor=#788AA3;fontColor=#46495D;fontSize=14;" parent="2e49270ec7c68f3f-30" vertex="1">
          <mxGeometry y="82" width="160" height="26" as="geometry" />
        </mxCell>
        <mxCell id="2e49270ec7c68f3f-36" value="FK" style="shape=partialRectangle;top=0;left=0;bottom=0;html=1;fillColor=none;align=left;verticalAlign=top;spacingLeft=4;spacingRight=4;whiteSpace=wrap;overflow=hidden;rotatable=0;points=[];portConstraint=eastwest;part=1;labelBackgroundColor=none;strokeColor=#788AA3;fontColor=#46495D;fontSize=14;" parent="2e49270ec7c68f3f-35" vertex="1" connectable="0">
          <mxGeometry width="30" height="26" as="geometry" />
        </mxCell>
        <mxCell id="2e49270ec7c68f3f-37" value="title" style="shape=partialRectangle;top=0;left=0;right=0;bottom=0;html=1;align=left;verticalAlign=top;fillColor=none;spacingLeft=34;spacingRight=4;whiteSpace=wrap;overflow=hidden;rotatable=0;points=[[0,0.5],[1,0.5]];portConstraint=eastwest;dropTarget=0;labelBackgroundColor=none;strokeColor=#788AA3;fontColor=#46495D;fontSize=14;" parent="2e49270ec7c68f3f-30" vertex="1">
          <mxGeometry y="108" width="160" height="26" as="geometry" />
        </mxCell>
        <mxCell id="2e49270ec7c68f3f-38" value="" style="shape=partialRectangle;top=0;left=0;bottom=0;html=1;fillColor=none;align=left;verticalAlign=top;spacingLeft=4;spacingRight=4;whiteSpace=wrap;overflow=hidden;rotatable=0;points=[];portConstraint=eastwest;part=1;labelBackgroundColor=none;strokeColor=#788AA3;fontColor=#46495D;fontSize=14;" parent="2e49270ec7c68f3f-37" vertex="1" connectable="0">
          <mxGeometry width="30" height="26" as="geometry" />
        </mxCell>
        <mxCell id="Q_0pFDTJ4Ten63mDGmTa-57" value="author" style="shape=partialRectangle;top=0;left=0;right=0;bottom=0;html=1;align=left;verticalAlign=top;fillColor=none;spacingLeft=34;spacingRight=4;whiteSpace=wrap;overflow=hidden;rotatable=0;points=[[0,0.5],[1,0.5]];portConstraint=eastwest;dropTarget=0;labelBackgroundColor=none;strokeColor=#788AA3;fontColor=#46495D;fontSize=14;" parent="2e49270ec7c68f3f-30" vertex="1">
          <mxGeometry y="134" width="160" height="26" as="geometry" />
        </mxCell>
        <mxCell id="Q_0pFDTJ4Ten63mDGmTa-58" value="" style="shape=partialRectangle;top=0;left=0;bottom=0;html=1;fillColor=none;align=left;verticalAlign=top;spacingLeft=4;spacingRight=4;whiteSpace=wrap;overflow=hidden;rotatable=0;points=[];portConstraint=eastwest;part=1;labelBackgroundColor=none;strokeColor=#788AA3;fontColor=#46495D;fontSize=14;" parent="Q_0pFDTJ4Ten63mDGmTa-57" vertex="1" connectable="0">
          <mxGeometry width="30" height="26" as="geometry" />
        </mxCell>
        <mxCell id="Q_0pFDTJ4Ten63mDGmTa-59" value="publication_date" style="shape=partialRectangle;top=0;left=0;right=0;bottom=0;html=1;align=left;verticalAlign=top;fillColor=none;spacingLeft=34;spacingRight=4;whiteSpace=wrap;overflow=hidden;rotatable=0;points=[[0,0.5],[1,0.5]];portConstraint=eastwest;dropTarget=0;labelBackgroundColor=none;strokeColor=#788AA3;fontColor=#46495D;fontSize=14;" parent="2e49270ec7c68f3f-30" vertex="1">
          <mxGeometry y="160" width="160" height="26" as="geometry" />
        </mxCell>
        <mxCell id="Q_0pFDTJ4Ten63mDGmTa-60" value="" style="shape=partialRectangle;top=0;left=0;bottom=0;html=1;fillColor=none;align=left;verticalAlign=top;spacingLeft=4;spacingRight=4;whiteSpace=wrap;overflow=hidden;rotatable=0;points=[];portConstraint=eastwest;part=1;labelBackgroundColor=none;strokeColor=#788AA3;fontColor=#46495D;fontSize=14;" parent="Q_0pFDTJ4Ten63mDGmTa-59" vertex="1" connectable="0">
          <mxGeometry width="30" height="26" as="geometry" />
        </mxCell>
        <mxCell id="Q_0pFDTJ4Ten63mDGmTa-61" value="journal" style="shape=partialRectangle;top=0;left=0;right=0;bottom=0;html=1;align=left;verticalAlign=top;fillColor=none;spacingLeft=34;spacingRight=4;whiteSpace=wrap;overflow=hidden;rotatable=0;points=[[0,0.5],[1,0.5]];portConstraint=eastwest;dropTarget=0;labelBackgroundColor=none;strokeColor=#788AA3;fontColor=#46495D;fontSize=14;" parent="2e49270ec7c68f3f-30" vertex="1">
          <mxGeometry y="186" width="160" height="26" as="geometry" />
        </mxCell>
        <mxCell id="Q_0pFDTJ4Ten63mDGmTa-62" value="" style="shape=partialRectangle;top=0;left=0;bottom=0;html=1;fillColor=none;align=left;verticalAlign=top;spacingLeft=4;spacingRight=4;whiteSpace=wrap;overflow=hidden;rotatable=0;points=[];portConstraint=eastwest;part=1;labelBackgroundColor=none;strokeColor=#788AA3;fontColor=#46495D;fontSize=14;" parent="Q_0pFDTJ4Ten63mDGmTa-61" vertex="1" connectable="0">
          <mxGeometry width="30" height="26" as="geometry" />
        </mxCell>
        <mxCell id="Q_0pFDTJ4Ten63mDGmTa-63" value="url" style="shape=partialRectangle;top=0;left=0;right=0;bottom=0;html=1;align=left;verticalAlign=top;fillColor=none;spacingLeft=34;spacingRight=4;whiteSpace=wrap;overflow=hidden;rotatable=0;points=[[0,0.5],[1,0.5]];portConstraint=eastwest;dropTarget=0;labelBackgroundColor=none;strokeColor=#788AA3;fontColor=#46495D;fontSize=14;" parent="2e49270ec7c68f3f-30" vertex="1">
          <mxGeometry y="212" width="160" height="26" as="geometry" />
        </mxCell>
        <mxCell id="Q_0pFDTJ4Ten63mDGmTa-64" value="" style="shape=partialRectangle;top=0;left=0;bottom=0;html=1;fillColor=none;align=left;verticalAlign=top;spacingLeft=4;spacingRight=4;whiteSpace=wrap;overflow=hidden;rotatable=0;points=[];portConstraint=eastwest;part=1;labelBackgroundColor=none;strokeColor=#788AA3;fontColor=#46495D;fontSize=14;" parent="Q_0pFDTJ4Ten63mDGmTa-63" vertex="1" connectable="0">
          <mxGeometry width="30" height="26" as="geometry" />
        </mxCell>
        <mxCell id="Q_0pFDTJ4Ten63mDGmTa-65" value="relevance_score" style="shape=partialRectangle;top=0;left=0;right=0;bottom=0;html=1;align=left;verticalAlign=top;fillColor=none;spacingLeft=34;spacingRight=4;whiteSpace=wrap;overflow=hidden;rotatable=0;points=[[0,0.5],[1,0.5]];portConstraint=eastwest;dropTarget=0;labelBackgroundColor=none;strokeColor=#788AA3;fontColor=#46495D;fontSize=14;" parent="2e49270ec7c68f3f-30" vertex="1">
          <mxGeometry y="238" width="160" height="26" as="geometry" />
        </mxCell>
        <mxCell id="Q_0pFDTJ4Ten63mDGmTa-66" value="" style="shape=partialRectangle;top=0;left=0;bottom=0;html=1;fillColor=none;align=left;verticalAlign=top;spacingLeft=4;spacingRight=4;whiteSpace=wrap;overflow=hidden;rotatable=0;points=[];portConstraint=eastwest;part=1;labelBackgroundColor=none;strokeColor=#788AA3;fontColor=#46495D;fontSize=14;" parent="Q_0pFDTJ4Ten63mDGmTa-65" vertex="1" connectable="0">
          <mxGeometry width="30" height="26" as="geometry" />
        </mxCell>
        <mxCell id="-HpzEENL_wUVOFL2SRbb-1" value="abstract" style="shape=partialRectangle;top=0;left=0;right=0;bottom=0;html=1;align=left;verticalAlign=top;fillColor=none;spacingLeft=34;spacingRight=4;whiteSpace=wrap;overflow=hidden;rotatable=0;points=[[0,0.5],[1,0.5]];portConstraint=eastwest;dropTarget=0;labelBackgroundColor=none;strokeColor=#788AA3;fontColor=#46495D;fontSize=14;" vertex="1" parent="2e49270ec7c68f3f-30">
          <mxGeometry y="264" width="160" height="26" as="geometry" />
        </mxCell>
        <mxCell id="-HpzEENL_wUVOFL2SRbb-2" value="" style="shape=partialRectangle;top=0;left=0;bottom=0;html=1;fillColor=none;align=left;verticalAlign=top;spacingLeft=4;spacingRight=4;whiteSpace=wrap;overflow=hidden;rotatable=0;points=[];portConstraint=eastwest;part=1;labelBackgroundColor=none;strokeColor=#788AA3;fontColor=#46495D;fontSize=14;" vertex="1" connectable="0" parent="-HpzEENL_wUVOFL2SRbb-1">
          <mxGeometry width="30" height="26" as="geometry" />
        </mxCell>
        <mxCell id="-HpzEENL_wUVOFL2SRbb-3" value="doi" style="shape=partialRectangle;top=0;left=0;right=0;bottom=0;html=1;align=left;verticalAlign=top;fillColor=none;spacingLeft=34;spacingRight=4;whiteSpace=wrap;overflow=hidden;rotatable=0;points=[[0,0.5],[1,0.5]];portConstraint=eastwest;dropTarget=0;labelBackgroundColor=none;strokeColor=#788AA3;fontColor=#46495D;fontSize=14;" vertex="1" parent="2e49270ec7c68f3f-30">
          <mxGeometry y="290" width="160" height="26" as="geometry" />
        </mxCell>
        <mxCell id="-HpzEENL_wUVOFL2SRbb-4" value="" style="shape=partialRectangle;top=0;left=0;bottom=0;html=1;fillColor=none;align=left;verticalAlign=top;spacingLeft=4;spacingRight=4;whiteSpace=wrap;overflow=hidden;rotatable=0;points=[];portConstraint=eastwest;part=1;labelBackgroundColor=none;strokeColor=#788AA3;fontColor=#46495D;fontSize=14;" vertex="1" connectable="0" parent="-HpzEENL_wUVOFL2SRbb-3">
          <mxGeometry width="30" height="26" as="geometry" />
        </mxCell>
        <mxCell id="Q_0pFDTJ4Ten63mDGmTa-171" style="edgeStyle=orthogonalEdgeStyle;rounded=0;orthogonalLoop=1;jettySize=auto;html=1;entryX=1;entryY=0.5;entryDx=0;entryDy=0;endArrow=ERoneToMany;endFill=0;startArrow=ERzeroToOne;startFill=0;labelBackgroundColor=none;strokeColor=#788AA3;fontColor=default;fontSize=14;" parent="1" source="2e49270ec7c68f3f-48" target="2e49270ec7c68f3f-33" edge="1">
          <mxGeometry relative="1" as="geometry" />
        </mxCell>
        <mxCell id="2e49270ec7c68f3f-48" value="Source" style="swimlane;html=1;fontStyle=0;childLayout=stackLayout;horizontal=1;startSize=26;fillColor=#B2C9AB;horizontalStack=0;resizeParent=1;resizeLast=0;collapsible=1;marginBottom=0;swimlaneFillColor=#ffffff;align=center;rounded=0;shadow=0;comic=0;labelBackgroundColor=none;strokeWidth=1;fontFamily=Verdana;fontSize=14;strokeColor=#788AA3;fontColor=#46495D;" parent="1" vertex="1">
          <mxGeometry x="838" y="70" width="202" height="134" as="geometry" />
        </mxCell>
        <mxCell id="2e49270ec7c68f3f-51" value="source_id" style="shape=partialRectangle;top=0;left=0;right=0;bottom=1;html=1;align=left;verticalAlign=middle;fillColor=none;spacingLeft=60;spacingRight=4;whiteSpace=wrap;overflow=hidden;rotatable=0;points=[[0,0.5],[1,0.5]];portConstraint=eastwest;dropTarget=0;fontStyle=5;labelBackgroundColor=none;strokeColor=#788AA3;fontColor=#46495D;fontSize=14;" parent="2e49270ec7c68f3f-48" vertex="1">
          <mxGeometry y="26" width="202" height="30" as="geometry" />
        </mxCell>
        <mxCell id="2e49270ec7c68f3f-52" value="PK" style="shape=partialRectangle;fontStyle=1;top=0;left=0;bottom=0;html=1;fillColor=none;align=left;verticalAlign=middle;spacingLeft=4;spacingRight=4;whiteSpace=wrap;overflow=hidden;rotatable=0;points=[];portConstraint=eastwest;part=1;labelBackgroundColor=none;strokeColor=#788AA3;fontColor=#46495D;fontSize=14;" parent="2e49270ec7c68f3f-51" vertex="1" connectable="0">
          <mxGeometry width="56" height="30" as="geometry" />
        </mxCell>
        <mxCell id="2e49270ec7c68f3f-53" value="source_name" style="shape=partialRectangle;top=0;left=0;right=0;bottom=0;html=1;align=left;verticalAlign=top;fillColor=none;spacingLeft=60;spacingRight=4;whiteSpace=wrap;overflow=hidden;rotatable=0;points=[[0,0.5],[1,0.5]];portConstraint=eastwest;dropTarget=0;labelBackgroundColor=none;strokeColor=#788AA3;fontColor=#46495D;fontSize=14;" parent="2e49270ec7c68f3f-48" vertex="1">
          <mxGeometry y="56" width="202" height="26" as="geometry" />
        </mxCell>
        <mxCell id="2e49270ec7c68f3f-54" value="" style="shape=partialRectangle;top=0;left=0;bottom=0;html=1;fillColor=none;align=left;verticalAlign=top;spacingLeft=4;spacingRight=4;whiteSpace=wrap;overflow=hidden;rotatable=0;points=[];portConstraint=eastwest;part=1;labelBackgroundColor=none;strokeColor=#788AA3;fontColor=#46495D;fontSize=14;" parent="2e49270ec7c68f3f-53" vertex="1" connectable="0">
          <mxGeometry width="56" height="26" as="geometry" />
        </mxCell>
        <mxCell id="Q_0pFDTJ4Ten63mDGmTa-83" value="api_endpoint" style="shape=partialRectangle;top=0;left=0;right=0;bottom=0;html=1;align=left;verticalAlign=top;fillColor=none;spacingLeft=60;spacingRight=4;whiteSpace=wrap;overflow=hidden;rotatable=0;points=[[0,0.5],[1,0.5]];portConstraint=eastwest;dropTarget=0;labelBackgroundColor=none;strokeColor=#788AA3;fontColor=#46495D;fontSize=14;" parent="2e49270ec7c68f3f-48" vertex="1">
          <mxGeometry y="82" width="202" height="26" as="geometry" />
        </mxCell>
        <mxCell id="Q_0pFDTJ4Ten63mDGmTa-84" value="" style="shape=partialRectangle;top=0;left=0;bottom=0;html=1;fillColor=none;align=left;verticalAlign=top;spacingLeft=4;spacingRight=4;whiteSpace=wrap;overflow=hidden;rotatable=0;points=[];portConstraint=eastwest;part=1;labelBackgroundColor=none;strokeColor=#788AA3;fontColor=#46495D;fontSize=14;" parent="Q_0pFDTJ4Ten63mDGmTa-83" vertex="1" connectable="0">
          <mxGeometry width="56" height="26" as="geometry" />
        </mxCell>
        <mxCell id="Q_0pFDTJ4Ten63mDGmTa-85" value="scrape_source_url" style="shape=partialRectangle;top=0;left=0;right=0;bottom=0;html=1;align=left;verticalAlign=top;fillColor=none;spacingLeft=60;spacingRight=4;whiteSpace=wrap;overflow=hidden;rotatable=0;points=[[0,0.5],[1,0.5]];portConstraint=eastwest;dropTarget=0;labelBackgroundColor=none;strokeColor=#788AA3;fontColor=#46495D;fontSize=14;" parent="2e49270ec7c68f3f-48" vertex="1">
          <mxGeometry y="108" width="202" height="26" as="geometry" />
        </mxCell>
        <mxCell id="Q_0pFDTJ4Ten63mDGmTa-86" value="" style="shape=partialRectangle;top=0;left=0;bottom=0;html=1;fillColor=none;align=left;verticalAlign=top;spacingLeft=4;spacingRight=4;whiteSpace=wrap;overflow=hidden;rotatable=0;points=[];portConstraint=eastwest;part=1;labelBackgroundColor=none;strokeColor=#788AA3;fontColor=#46495D;fontSize=14;" parent="Q_0pFDTJ4Ten63mDGmTa-85" vertex="1" connectable="0">
          <mxGeometry width="56" height="26" as="geometry" />
        </mxCell>
        <mxCell id="2e49270ec7c68f3f-80" value="ArticleScore" style="swimlane;html=1;fontStyle=0;childLayout=stackLayout;horizontal=1;startSize=26;fillColor=#B2C9AB;horizontalStack=0;resizeParent=1;resizeLast=0;collapsible=1;marginBottom=0;swimlaneFillColor=#ffffff;align=center;rounded=0;shadow=0;comic=0;labelBackgroundColor=none;strokeWidth=1;fontFamily=Verdana;fontSize=14;strokeColor=#788AA3;fontColor=#46495D;" parent="1" vertex="1">
          <mxGeometry x="425" y="100" width="160" height="240" as="geometry" />
        </mxCell>
        <mxCell id="2e49270ec7c68f3f-81" value="article_score_id" style="shape=partialRectangle;top=0;left=0;right=0;bottom=1;html=1;align=left;verticalAlign=middle;fillColor=none;spacingLeft=34;spacingRight=4;whiteSpace=wrap;overflow=hidden;rotatable=0;points=[[0,0.5],[1,0.5]];portConstraint=eastwest;dropTarget=0;fontStyle=5;labelBackgroundColor=none;strokeColor=#788AA3;fontColor=#46495D;fontSize=14;" parent="2e49270ec7c68f3f-80" vertex="1">
          <mxGeometry y="26" width="160" height="30" as="geometry" />
        </mxCell>
        <mxCell id="2e49270ec7c68f3f-82" value="PK" style="shape=partialRectangle;top=0;left=0;bottom=0;html=1;fillColor=none;align=left;verticalAlign=middle;spacingLeft=4;spacingRight=4;whiteSpace=wrap;overflow=hidden;rotatable=0;points=[];portConstraint=eastwest;part=1;labelBackgroundColor=none;strokeColor=#788AA3;fontColor=#46495D;fontSize=14;" parent="2e49270ec7c68f3f-81" vertex="1" connectable="0">
          <mxGeometry width="30" height="30" as="geometry" />
        </mxCell>
        <mxCell id="2e49270ec7c68f3f-83" value="user_id" style="shape=partialRectangle;top=0;left=0;right=0;bottom=0;html=1;align=left;verticalAlign=top;fillColor=none;spacingLeft=34;spacingRight=4;whiteSpace=wrap;overflow=hidden;rotatable=0;points=[[0,0.5],[1,0.5]];portConstraint=eastwest;dropTarget=0;labelBackgroundColor=none;strokeColor=#788AA3;fontColor=#46495D;fontSize=14;" parent="2e49270ec7c68f3f-80" vertex="1">
          <mxGeometry y="56" width="160" height="26" as="geometry" />
        </mxCell>
        <mxCell id="2e49270ec7c68f3f-84" value="FK" style="shape=partialRectangle;top=0;left=0;bottom=0;html=1;fillColor=none;align=left;verticalAlign=top;spacingLeft=4;spacingRight=4;whiteSpace=wrap;overflow=hidden;rotatable=0;points=[];portConstraint=eastwest;part=1;labelBackgroundColor=none;strokeColor=#788AA3;fontColor=#46495D;fontSize=14;" parent="2e49270ec7c68f3f-83" vertex="1" connectable="0">
          <mxGeometry width="30" height="26" as="geometry" />
        </mxCell>
        <mxCell id="2e49270ec7c68f3f-85" value="article_id" style="shape=partialRectangle;top=0;left=0;right=0;bottom=0;html=1;align=left;verticalAlign=top;fillColor=none;spacingLeft=34;spacingRight=4;whiteSpace=wrap;overflow=hidden;rotatable=0;points=[[0,0.5],[1,0.5]];portConstraint=eastwest;dropTarget=0;labelBackgroundColor=none;strokeColor=#788AA3;fontColor=#46495D;fontSize=14;" parent="2e49270ec7c68f3f-80" vertex="1">
          <mxGeometry y="82" width="160" height="26" as="geometry" />
        </mxCell>
        <mxCell id="2e49270ec7c68f3f-86" value="FK" style="shape=partialRectangle;top=0;left=0;bottom=0;html=1;fillColor=none;align=left;verticalAlign=top;spacingLeft=4;spacingRight=4;whiteSpace=wrap;overflow=hidden;rotatable=0;points=[];portConstraint=eastwest;part=1;labelBackgroundColor=none;strokeColor=#788AA3;fontColor=#46495D;fontSize=14;" parent="2e49270ec7c68f3f-85" vertex="1" connectable="0">
          <mxGeometry width="30" height="26" as="geometry" />
        </mxCell>
        <mxCell id="2e49270ec7c68f3f-87" value="search_id" style="shape=partialRectangle;top=0;left=0;right=0;bottom=0;html=1;align=left;verticalAlign=top;fillColor=none;spacingLeft=34;spacingRight=4;whiteSpace=wrap;overflow=hidden;rotatable=0;points=[[0,0.5],[1,0.5]];portConstraint=eastwest;dropTarget=0;labelBackgroundColor=none;strokeColor=#788AA3;fontColor=#46495D;fontSize=14;" parent="2e49270ec7c68f3f-80" vertex="1">
          <mxGeometry y="108" width="160" height="26" as="geometry" />
        </mxCell>
        <mxCell id="2e49270ec7c68f3f-88" value="" style="shape=partialRectangle;top=0;left=0;bottom=0;html=1;fillColor=none;align=left;verticalAlign=top;spacingLeft=4;spacingRight=4;whiteSpace=wrap;overflow=hidden;rotatable=0;points=[];portConstraint=eastwest;part=1;labelBackgroundColor=none;strokeColor=#788AA3;fontColor=#46495D;fontSize=14;" parent="2e49270ec7c68f3f-87" vertex="1" connectable="0">
          <mxGeometry width="30" height="26" as="geometry" />
        </mxCell>
        <mxCell id="Q_0pFDTJ4Ten63mDGmTa-47" value="score" style="shape=partialRectangle;top=0;left=0;right=0;bottom=0;html=1;align=left;verticalAlign=top;fillColor=none;spacingLeft=34;spacingRight=4;whiteSpace=wrap;overflow=hidden;rotatable=0;points=[[0,0.5],[1,0.5]];portConstraint=eastwest;dropTarget=0;labelBackgroundColor=none;strokeColor=#788AA3;fontColor=#46495D;fontSize=14;" parent="2e49270ec7c68f3f-80" vertex="1">
          <mxGeometry y="134" width="160" height="26" as="geometry" />
        </mxCell>
        <mxCell id="Q_0pFDTJ4Ten63mDGmTa-48" value="" style="shape=partialRectangle;top=0;left=0;bottom=0;html=1;fillColor=none;align=left;verticalAlign=top;spacingLeft=4;spacingRight=4;whiteSpace=wrap;overflow=hidden;rotatable=0;points=[];portConstraint=eastwest;part=1;labelBackgroundColor=none;strokeColor=#788AA3;fontColor=#46495D;fontSize=14;" parent="Q_0pFDTJ4Ten63mDGmTa-47" vertex="1" connectable="0">
          <mxGeometry width="30" height="26" as="geometry" />
        </mxCell>
        <mxCell id="Q_0pFDTJ4Ten63mDGmTa-49" value="last_updated_by_user_id" style="shape=partialRectangle;top=0;left=0;right=0;bottom=0;html=1;align=left;verticalAlign=top;fillColor=none;spacingLeft=34;spacingRight=4;whiteSpace=wrap;overflow=hidden;rotatable=0;points=[[0,0.5],[1,0.5]];portConstraint=eastwest;dropTarget=0;labelBackgroundColor=none;strokeColor=#788AA3;fontColor=#46495D;fontSize=14;" parent="2e49270ec7c68f3f-80" vertex="1">
          <mxGeometry y="160" width="160" height="26" as="geometry" />
        </mxCell>
        <mxCell id="Q_0pFDTJ4Ten63mDGmTa-50" value="FK" style="shape=partialRectangle;top=0;left=0;bottom=0;html=1;fillColor=none;align=left;verticalAlign=top;spacingLeft=4;spacingRight=4;whiteSpace=wrap;overflow=hidden;rotatable=0;points=[];portConstraint=eastwest;part=1;labelBackgroundColor=none;strokeColor=#788AA3;fontColor=#46495D;fontSize=14;" parent="Q_0pFDTJ4Ten63mDGmTa-49" vertex="1" connectable="0">
          <mxGeometry width="30" height="26" as="geometry" />
        </mxCell>
        <mxCell id="Q_0pFDTJ4Ten63mDGmTa-51" value="evaluation_date" style="shape=partialRectangle;top=0;left=0;right=0;bottom=0;html=1;align=left;verticalAlign=top;fillColor=none;spacingLeft=34;spacingRight=4;whiteSpace=wrap;overflow=hidden;rotatable=0;points=[[0,0.5],[1,0.5]];portConstraint=eastwest;dropTarget=0;labelBackgroundColor=none;strokeColor=#788AA3;fontColor=#46495D;fontSize=14;" parent="2e49270ec7c68f3f-80" vertex="1">
          <mxGeometry y="186" width="160" height="26" as="geometry" />
        </mxCell>
        <mxCell id="Q_0pFDTJ4Ten63mDGmTa-52" value="" style="shape=partialRectangle;top=0;left=0;bottom=0;html=1;fillColor=none;align=left;verticalAlign=top;spacingLeft=4;spacingRight=4;whiteSpace=wrap;overflow=hidden;rotatable=0;points=[];portConstraint=eastwest;part=1;labelBackgroundColor=none;strokeColor=#788AA3;fontColor=#46495D;fontSize=14;" parent="Q_0pFDTJ4Ten63mDGmTa-51" vertex="1" connectable="0">
          <mxGeometry width="30" height="26" as="geometry" />
        </mxCell>
        <mxCell id="Q_0pFDTJ4Ten63mDGmTa-53" value="last_updated_at" style="shape=partialRectangle;top=0;left=0;right=0;bottom=0;html=1;align=left;verticalAlign=top;fillColor=none;spacingLeft=34;spacingRight=4;whiteSpace=wrap;overflow=hidden;rotatable=0;points=[[0,0.5],[1,0.5]];portConstraint=eastwest;dropTarget=0;labelBackgroundColor=none;strokeColor=#788AA3;fontColor=#46495D;fontSize=14;" parent="2e49270ec7c68f3f-80" vertex="1">
          <mxGeometry y="212" width="160" height="26" as="geometry" />
        </mxCell>
        <mxCell id="Q_0pFDTJ4Ten63mDGmTa-54" value="" style="shape=partialRectangle;top=0;left=0;bottom=0;html=1;fillColor=none;align=left;verticalAlign=top;spacingLeft=4;spacingRight=4;whiteSpace=wrap;overflow=hidden;rotatable=0;points=[];portConstraint=eastwest;part=1;labelBackgroundColor=none;strokeColor=#788AA3;fontColor=#46495D;fontSize=14;" parent="Q_0pFDTJ4Ten63mDGmTa-53" vertex="1" connectable="0">
          <mxGeometry width="30" height="26" as="geometry" />
        </mxCell>
        <mxCell id="Q_0pFDTJ4Ten63mDGmTa-163" style="edgeStyle=orthogonalEdgeStyle;rounded=0;orthogonalLoop=1;jettySize=auto;html=1;entryX=0.25;entryY=0;entryDx=0;entryDy=0;startArrow=ERoneToMany;startFill=0;endArrow=ERzeroToOne;endFill=0;labelBackgroundColor=none;strokeColor=#788AA3;fontColor=default;fontSize=14;" parent="1" source="Q_0pFDTJ4Ten63mDGmTa-1" target="2e49270ec7c68f3f-19" edge="1">
          <mxGeometry relative="1" as="geometry" />
        </mxCell>
        <mxCell id="Q_0pFDTJ4Ten63mDGmTa-1" value="SearchKeyword" style="swimlane;html=1;fontStyle=0;childLayout=stackLayout;horizontal=1;startSize=26;fillColor=#B2C9AB;horizontalStack=0;resizeParent=1;resizeLast=0;collapsible=1;marginBottom=0;swimlaneFillColor=#ffffff;align=center;rounded=0;shadow=0;comic=0;labelBackgroundColor=none;strokeWidth=1;fontFamily=Verdana;fontSize=14;strokeColor=#788AA3;fontColor=#46495D;" parent="1" vertex="1">
          <mxGeometry x="281" y="-410" width="238" height="108" as="geometry" />
        </mxCell>
        <mxCell id="Q_0pFDTJ4Ten63mDGmTa-2" value="search_keyword_id" style="shape=partialRectangle;top=0;left=0;right=0;bottom=1;html=1;align=left;verticalAlign=middle;fillColor=none;spacingLeft=34;spacingRight=4;whiteSpace=wrap;overflow=hidden;rotatable=0;points=[[0,0.5],[1,0.5]];portConstraint=eastwest;dropTarget=0;fontStyle=5;labelBackgroundColor=none;strokeColor=#788AA3;fontColor=#46495D;fontSize=14;" parent="Q_0pFDTJ4Ten63mDGmTa-1" vertex="1">
          <mxGeometry y="26" width="238" height="30" as="geometry" />
        </mxCell>
        <mxCell id="Q_0pFDTJ4Ten63mDGmTa-3" value="PK" style="shape=partialRectangle;top=0;left=0;bottom=0;html=1;fillColor=none;align=left;verticalAlign=middle;spacingLeft=4;spacingRight=4;whiteSpace=wrap;overflow=hidden;rotatable=0;points=[];portConstraint=eastwest;part=1;labelBackgroundColor=none;strokeColor=#788AA3;fontColor=#46495D;fontSize=14;" parent="Q_0pFDTJ4Ten63mDGmTa-2" vertex="1" connectable="0">
          <mxGeometry width="30" height="30" as="geometry" />
        </mxCell>
        <mxCell id="Q_0pFDTJ4Ten63mDGmTa-4" value="search_id" style="shape=partialRectangle;top=0;left=0;right=0;bottom=0;html=1;align=left;verticalAlign=top;fillColor=none;spacingLeft=34;spacingRight=4;whiteSpace=wrap;overflow=hidden;rotatable=0;points=[[0,0.5],[1,0.5]];portConstraint=eastwest;dropTarget=0;labelBackgroundColor=none;strokeColor=#788AA3;fontColor=#46495D;fontSize=14;" parent="Q_0pFDTJ4Ten63mDGmTa-1" vertex="1">
          <mxGeometry y="56" width="238" height="26" as="geometry" />
        </mxCell>
        <mxCell id="Q_0pFDTJ4Ten63mDGmTa-5" value="FK" style="shape=partialRectangle;top=0;left=0;bottom=0;html=1;fillColor=none;align=left;verticalAlign=top;spacingLeft=4;spacingRight=4;whiteSpace=wrap;overflow=hidden;rotatable=0;points=[];portConstraint=eastwest;part=1;labelBackgroundColor=none;strokeColor=#788AA3;fontColor=#46495D;fontSize=14;" parent="Q_0pFDTJ4Ten63mDGmTa-4" vertex="1" connectable="0">
          <mxGeometry width="30" height="26" as="geometry" />
        </mxCell>
        <mxCell id="Q_0pFDTJ4Ten63mDGmTa-6" value="keyword_id" style="shape=partialRectangle;top=0;left=0;right=0;bottom=0;html=1;align=left;verticalAlign=top;fillColor=none;spacingLeft=34;spacingRight=4;whiteSpace=wrap;overflow=hidden;rotatable=0;points=[[0,0.5],[1,0.5]];portConstraint=eastwest;dropTarget=0;labelBackgroundColor=none;strokeColor=#788AA3;fontColor=#46495D;fontSize=14;" parent="Q_0pFDTJ4Ten63mDGmTa-1" vertex="1">
          <mxGeometry y="82" width="238" height="26" as="geometry" />
        </mxCell>
        <mxCell id="Q_0pFDTJ4Ten63mDGmTa-7" value="FK" style="shape=partialRectangle;top=0;left=0;bottom=0;html=1;fillColor=none;align=left;verticalAlign=top;spacingLeft=4;spacingRight=4;whiteSpace=wrap;overflow=hidden;rotatable=0;points=[];portConstraint=eastwest;part=1;labelBackgroundColor=none;strokeColor=#788AA3;fontColor=#46495D;fontSize=14;" parent="Q_0pFDTJ4Ten63mDGmTa-6" vertex="1" connectable="0">
          <mxGeometry width="30" height="26" as="geometry" />
        </mxCell>
        <mxCell id="Q_0pFDTJ4Ten63mDGmTa-169" style="edgeStyle=orthogonalEdgeStyle;rounded=0;orthogonalLoop=1;jettySize=auto;html=1;entryX=1;entryY=0.5;entryDx=0;entryDy=0;endArrow=ERmandOne;endFill=0;startArrow=ERoneToMany;startFill=0;labelBackgroundColor=none;strokeColor=#788AA3;fontColor=default;fontSize=14;" parent="1" source="Q_0pFDTJ4Ten63mDGmTa-12" target="Q_0pFDTJ4Ten63mDGmTa-114" edge="1">
          <mxGeometry relative="1" as="geometry" />
        </mxCell>
        <mxCell id="Q_0pFDTJ4Ten63mDGmTa-12" value="ResearchQuestions" style="swimlane;html=1;fontStyle=0;childLayout=stackLayout;horizontal=1;startSize=26;fillColor=#B2C9AB;horizontalStack=0;resizeParent=1;resizeLast=0;collapsible=1;marginBottom=0;swimlaneFillColor=#ffffff;align=center;rounded=0;shadow=0;comic=0;labelBackgroundColor=none;strokeWidth=1;fontFamily=Verdana;fontSize=14;strokeColor=#788AA3;fontColor=#46495D;" parent="1" vertex="1">
          <mxGeometry x="900" y="600" width="204" height="85" as="geometry" />
        </mxCell>
        <mxCell id="Q_0pFDTJ4Ten63mDGmTa-13" value="research_question_id" style="shape=partialRectangle;top=0;left=0;right=0;bottom=1;html=1;align=left;verticalAlign=middle;fillColor=none;spacingLeft=34;spacingRight=4;whiteSpace=wrap;overflow=hidden;rotatable=0;points=[[0,0.5],[1,0.5]];portConstraint=eastwest;dropTarget=0;fontStyle=5;labelBackgroundColor=none;strokeColor=#788AA3;fontColor=#46495D;fontSize=14;" parent="Q_0pFDTJ4Ten63mDGmTa-12" vertex="1">
          <mxGeometry y="26" width="204" height="30" as="geometry" />
        </mxCell>
        <mxCell id="Q_0pFDTJ4Ten63mDGmTa-14" value="PK" style="shape=partialRectangle;top=0;left=0;bottom=0;html=1;fillColor=none;align=left;verticalAlign=middle;spacingLeft=4;spacingRight=4;whiteSpace=wrap;overflow=hidden;rotatable=0;points=[];portConstraint=eastwest;part=1;labelBackgroundColor=none;strokeColor=#788AA3;fontColor=#46495D;fontSize=14;" parent="Q_0pFDTJ4Ten63mDGmTa-13" vertex="1" connectable="0">
          <mxGeometry width="30" height="30" as="geometry" />
        </mxCell>
        <mxCell id="Q_0pFDTJ4Ten63mDGmTa-17" value="research_question" style="shape=partialRectangle;top=0;left=0;right=0;bottom=0;html=1;align=left;verticalAlign=top;fillColor=none;spacingLeft=34;spacingRight=4;whiteSpace=wrap;overflow=hidden;rotatable=0;points=[[0,0.5],[1,0.5]];portConstraint=eastwest;dropTarget=0;labelBackgroundColor=none;strokeColor=#788AA3;fontColor=#46495D;fontSize=14;" parent="Q_0pFDTJ4Ten63mDGmTa-12" vertex="1">
          <mxGeometry y="56" width="204" height="26" as="geometry" />
        </mxCell>
        <mxCell id="Q_0pFDTJ4Ten63mDGmTa-18" value="" style="shape=partialRectangle;top=0;left=0;bottom=0;html=1;fillColor=none;align=left;verticalAlign=top;spacingLeft=4;spacingRight=4;whiteSpace=wrap;overflow=hidden;rotatable=0;points=[];portConstraint=eastwest;part=1;labelBackgroundColor=none;strokeColor=#788AA3;fontColor=#46495D;fontSize=14;" parent="Q_0pFDTJ4Ten63mDGmTa-17" vertex="1" connectable="0">
          <mxGeometry width="30" height="26" as="geometry" />
        </mxCell>
        <mxCell id="Q_0pFDTJ4Ten63mDGmTa-23" value="Collaboration" style="swimlane;html=1;fontStyle=0;childLayout=stackLayout;horizontal=1;startSize=26;fillColor=#B2C9AB;horizontalStack=0;resizeParent=1;resizeLast=0;collapsible=1;marginBottom=0;swimlaneFillColor=#ffffff;align=center;rounded=0;shadow=0;comic=0;labelBackgroundColor=none;strokeWidth=1;fontFamily=Verdana;fontSize=14;strokeColor=#788AA3;fontColor=#46495D;" parent="1" vertex="1">
          <mxGeometry x="850" y="-140" width="160" height="134" as="geometry" />
        </mxCell>
        <mxCell id="Q_0pFDTJ4Ten63mDGmTa-24" value="collaboration_id" style="shape=partialRectangle;top=0;left=0;right=0;bottom=1;html=1;align=left;verticalAlign=middle;fillColor=none;spacingLeft=34;spacingRight=4;whiteSpace=wrap;overflow=hidden;rotatable=0;points=[[0,0.5],[1,0.5]];portConstraint=eastwest;dropTarget=0;fontStyle=5;labelBackgroundColor=none;strokeColor=#788AA3;fontColor=#46495D;fontSize=14;" parent="Q_0pFDTJ4Ten63mDGmTa-23" vertex="1">
          <mxGeometry y="26" width="160" height="30" as="geometry" />
        </mxCell>
        <mxCell id="Q_0pFDTJ4Ten63mDGmTa-25" value="PK" style="shape=partialRectangle;top=0;left=0;bottom=0;html=1;fillColor=none;align=left;verticalAlign=middle;spacingLeft=4;spacingRight=4;whiteSpace=wrap;overflow=hidden;rotatable=0;points=[];portConstraint=eastwest;part=1;labelBackgroundColor=none;strokeColor=#788AA3;fontColor=#46495D;fontSize=14;" parent="Q_0pFDTJ4Ten63mDGmTa-24" vertex="1" connectable="0">
          <mxGeometry width="30" height="30" as="geometry" />
        </mxCell>
        <mxCell id="Q_0pFDTJ4Ten63mDGmTa-26" value="article_id" style="shape=partialRectangle;top=0;left=0;right=0;bottom=0;html=1;align=left;verticalAlign=top;fillColor=none;spacingLeft=34;spacingRight=4;whiteSpace=wrap;overflow=hidden;rotatable=0;points=[[0,0.5],[1,0.5]];portConstraint=eastwest;dropTarget=0;labelBackgroundColor=none;strokeColor=#788AA3;fontColor=#46495D;fontSize=14;" parent="Q_0pFDTJ4Ten63mDGmTa-23" vertex="1">
          <mxGeometry y="56" width="160" height="26" as="geometry" />
        </mxCell>
        <mxCell id="Q_0pFDTJ4Ten63mDGmTa-27" value="FK" style="shape=partialRectangle;top=0;left=0;bottom=0;html=1;fillColor=none;align=left;verticalAlign=top;spacingLeft=4;spacingRight=4;whiteSpace=wrap;overflow=hidden;rotatable=0;points=[];portConstraint=eastwest;part=1;labelBackgroundColor=none;strokeColor=#788AA3;fontColor=#46495D;fontSize=14;" parent="Q_0pFDTJ4Ten63mDGmTa-26" vertex="1" connectable="0">
          <mxGeometry width="30" height="26" as="geometry" />
        </mxCell>
        <mxCell id="Q_0pFDTJ4Ten63mDGmTa-28" value="user_id" style="shape=partialRectangle;top=0;left=0;right=0;bottom=0;html=1;align=left;verticalAlign=top;fillColor=none;spacingLeft=34;spacingRight=4;whiteSpace=wrap;overflow=hidden;rotatable=0;points=[[0,0.5],[1,0.5]];portConstraint=eastwest;dropTarget=0;labelBackgroundColor=none;strokeColor=#788AA3;fontColor=#46495D;fontSize=14;" parent="Q_0pFDTJ4Ten63mDGmTa-23" vertex="1">
          <mxGeometry y="82" width="160" height="26" as="geometry" />
        </mxCell>
        <mxCell id="Q_0pFDTJ4Ten63mDGmTa-29" value="FK" style="shape=partialRectangle;top=0;left=0;bottom=0;html=1;fillColor=none;align=left;verticalAlign=top;spacingLeft=4;spacingRight=4;whiteSpace=wrap;overflow=hidden;rotatable=0;points=[];portConstraint=eastwest;part=1;labelBackgroundColor=none;strokeColor=#788AA3;fontColor=#46495D;fontSize=14;" parent="Q_0pFDTJ4Ten63mDGmTa-28" vertex="1" connectable="0">
          <mxGeometry width="30" height="26" as="geometry" />
        </mxCell>
        <mxCell id="Q_0pFDTJ4Ten63mDGmTa-30" value="created_at" style="shape=partialRectangle;top=0;left=0;right=0;bottom=0;html=1;align=left;verticalAlign=top;fillColor=none;spacingLeft=34;spacingRight=4;whiteSpace=wrap;overflow=hidden;rotatable=0;points=[[0,0.5],[1,0.5]];portConstraint=eastwest;dropTarget=0;labelBackgroundColor=none;strokeColor=#788AA3;fontColor=#46495D;fontSize=14;" parent="Q_0pFDTJ4Ten63mDGmTa-23" vertex="1">
          <mxGeometry y="108" width="160" height="26" as="geometry" />
        </mxCell>
        <mxCell id="Q_0pFDTJ4Ten63mDGmTa-31" value="" style="shape=partialRectangle;top=0;left=0;bottom=0;html=1;fillColor=none;align=left;verticalAlign=top;spacingLeft=4;spacingRight=4;whiteSpace=wrap;overflow=hidden;rotatable=0;points=[];portConstraint=eastwest;part=1;labelBackgroundColor=none;strokeColor=#788AA3;fontColor=#46495D;fontSize=14;" parent="Q_0pFDTJ4Ten63mDGmTa-30" vertex="1" connectable="0">
          <mxGeometry width="30" height="26" as="geometry" />
        </mxCell>
        <mxCell id="Q_0pFDTJ4Ten63mDGmTa-170" style="edgeStyle=orthogonalEdgeStyle;rounded=0;orthogonalLoop=1;jettySize=auto;html=1;entryX=0.25;entryY=0;entryDx=0;entryDy=0;endArrow=ERzeroToOne;endFill=0;startArrow=ERoneToMany;startFill=0;labelBackgroundColor=none;strokeColor=#788AA3;fontColor=default;fontSize=14;" parent="1" source="Q_0pFDTJ4Ten63mDGmTa-34" target="Q_0pFDTJ4Ten63mDGmTa-72" edge="1">
          <mxGeometry relative="1" as="geometry" />
        </mxCell>
        <mxCell id="Q_0pFDTJ4Ten63mDGmTa-34" value="SearchShare" style="swimlane;html=1;fontStyle=0;childLayout=stackLayout;horizontal=1;startSize=26;fillColor=#B2C9AB;horizontalStack=0;resizeParent=1;resizeLast=0;collapsible=1;marginBottom=0;swimlaneFillColor=#ffffff;align=center;rounded=0;shadow=0;comic=0;labelBackgroundColor=none;strokeWidth=1;fontFamily=Verdana;fontSize=14;strokeColor=#788AA3;fontColor=#46495D;" parent="1" vertex="1">
          <mxGeometry x="80" y="-166" width="160" height="160" as="geometry" />
        </mxCell>
        <mxCell id="Q_0pFDTJ4Ten63mDGmTa-35" value="share_id" style="shape=partialRectangle;top=0;left=0;right=0;bottom=1;html=1;align=left;verticalAlign=middle;fillColor=none;spacingLeft=34;spacingRight=4;whiteSpace=wrap;overflow=hidden;rotatable=0;points=[[0,0.5],[1,0.5]];portConstraint=eastwest;dropTarget=0;fontStyle=5;labelBackgroundColor=none;strokeColor=#788AA3;fontColor=#46495D;fontSize=14;" parent="Q_0pFDTJ4Ten63mDGmTa-34" vertex="1">
          <mxGeometry y="26" width="160" height="30" as="geometry" />
        </mxCell>
        <mxCell id="Q_0pFDTJ4Ten63mDGmTa-36" value="PK" style="shape=partialRectangle;top=0;left=0;bottom=0;html=1;fillColor=none;align=left;verticalAlign=middle;spacingLeft=4;spacingRight=4;whiteSpace=wrap;overflow=hidden;rotatable=0;points=[];portConstraint=eastwest;part=1;labelBackgroundColor=none;strokeColor=#788AA3;fontColor=#46495D;fontSize=14;" parent="Q_0pFDTJ4Ten63mDGmTa-35" vertex="1" connectable="0">
          <mxGeometry width="30" height="30" as="geometry" />
        </mxCell>
        <mxCell id="Q_0pFDTJ4Ten63mDGmTa-37" value="search_id" style="shape=partialRectangle;top=0;left=0;right=0;bottom=0;html=1;align=left;verticalAlign=top;fillColor=none;spacingLeft=34;spacingRight=4;whiteSpace=wrap;overflow=hidden;rotatable=0;points=[[0,0.5],[1,0.5]];portConstraint=eastwest;dropTarget=0;labelBackgroundColor=none;strokeColor=#788AA3;fontColor=#46495D;fontSize=14;" parent="Q_0pFDTJ4Ten63mDGmTa-34" vertex="1">
          <mxGeometry y="56" width="160" height="26" as="geometry" />
        </mxCell>
        <mxCell id="Q_0pFDTJ4Ten63mDGmTa-38" value="FK" style="shape=partialRectangle;top=0;left=0;bottom=0;html=1;fillColor=none;align=left;verticalAlign=top;spacingLeft=4;spacingRight=4;whiteSpace=wrap;overflow=hidden;rotatable=0;points=[];portConstraint=eastwest;part=1;labelBackgroundColor=none;strokeColor=#788AA3;fontColor=#46495D;fontSize=14;" parent="Q_0pFDTJ4Ten63mDGmTa-37" vertex="1" connectable="0">
          <mxGeometry width="30" height="26" as="geometry" />
        </mxCell>
        <mxCell id="Q_0pFDTJ4Ten63mDGmTa-39" value="shared_with_user_id" style="shape=partialRectangle;top=0;left=0;right=0;bottom=0;html=1;align=left;verticalAlign=top;fillColor=none;spacingLeft=34;spacingRight=4;whiteSpace=wrap;overflow=hidden;rotatable=0;points=[[0,0.5],[1,0.5]];portConstraint=eastwest;dropTarget=0;labelBackgroundColor=none;strokeColor=#788AA3;fontColor=#46495D;fontSize=14;" parent="Q_0pFDTJ4Ten63mDGmTa-34" vertex="1">
          <mxGeometry y="82" width="160" height="26" as="geometry" />
        </mxCell>
        <mxCell id="Q_0pFDTJ4Ten63mDGmTa-40" value="" style="shape=partialRectangle;top=0;left=0;bottom=0;html=1;fillColor=none;align=left;verticalAlign=top;spacingLeft=4;spacingRight=4;whiteSpace=wrap;overflow=hidden;rotatable=0;points=[];portConstraint=eastwest;part=1;labelBackgroundColor=none;strokeColor=#788AA3;fontColor=#46495D;fontSize=14;" parent="Q_0pFDTJ4Ten63mDGmTa-39" vertex="1" connectable="0">
          <mxGeometry width="30" height="26" as="geometry" />
        </mxCell>
        <mxCell id="Q_0pFDTJ4Ten63mDGmTa-41" value="shared_by_user_id" style="shape=partialRectangle;top=0;left=0;right=0;bottom=0;html=1;align=left;verticalAlign=top;fillColor=none;spacingLeft=34;spacingRight=4;whiteSpace=wrap;overflow=hidden;rotatable=0;points=[[0,0.5],[1,0.5]];portConstraint=eastwest;dropTarget=0;labelBackgroundColor=none;strokeColor=#788AA3;fontColor=#46495D;fontSize=14;" parent="Q_0pFDTJ4Ten63mDGmTa-34" vertex="1">
          <mxGeometry y="108" width="160" height="26" as="geometry" />
        </mxCell>
        <mxCell id="Q_0pFDTJ4Ten63mDGmTa-42" value="" style="shape=partialRectangle;top=0;left=0;bottom=0;html=1;fillColor=none;align=left;verticalAlign=top;spacingLeft=4;spacingRight=4;whiteSpace=wrap;overflow=hidden;rotatable=0;points=[];portConstraint=eastwest;part=1;labelBackgroundColor=none;strokeColor=#788AA3;fontColor=#46495D;fontSize=14;" parent="Q_0pFDTJ4Ten63mDGmTa-41" vertex="1" connectable="0">
          <mxGeometry width="30" height="26" as="geometry" />
        </mxCell>
        <mxCell id="Q_0pFDTJ4Ten63mDGmTa-111" value="share_date" style="shape=partialRectangle;top=0;left=0;right=0;bottom=0;html=1;align=left;verticalAlign=top;fillColor=none;spacingLeft=34;spacingRight=4;whiteSpace=wrap;overflow=hidden;rotatable=0;points=[[0,0.5],[1,0.5]];portConstraint=eastwest;dropTarget=0;labelBackgroundColor=none;strokeColor=#788AA3;fontColor=#46495D;fontSize=14;" parent="Q_0pFDTJ4Ten63mDGmTa-34" vertex="1">
          <mxGeometry y="134" width="160" height="26" as="geometry" />
        </mxCell>
        <mxCell id="Q_0pFDTJ4Ten63mDGmTa-112" value="" style="shape=partialRectangle;top=0;left=0;bottom=0;html=1;fillColor=none;align=left;verticalAlign=top;spacingLeft=4;spacingRight=4;whiteSpace=wrap;overflow=hidden;rotatable=0;points=[];portConstraint=eastwest;part=1;labelBackgroundColor=none;strokeColor=#788AA3;fontColor=#46495D;fontSize=14;" parent="Q_0pFDTJ4Ten63mDGmTa-111" vertex="1" connectable="0">
          <mxGeometry width="30" height="26" as="geometry" />
        </mxCell>
        <mxCell id="Q_0pFDTJ4Ten63mDGmTa-158" style="edgeStyle=orthogonalEdgeStyle;rounded=0;orthogonalLoop=1;jettySize=auto;html=1;entryX=0.5;entryY=0;entryDx=0;entryDy=0;startArrow=ERzeroToOne;startFill=0;endArrow=ERoneToMany;endFill=0;labelBackgroundColor=none;strokeColor=#788AA3;fontColor=default;fontSize=14;" parent="1" source="Q_0pFDTJ4Ten63mDGmTa-72" target="Q_0pFDTJ4Ten63mDGmTa-126" edge="1">
          <mxGeometry relative="1" as="geometry" />
        </mxCell>
        <mxCell id="Q_0pFDTJ4Ten63mDGmTa-168" style="edgeStyle=orthogonalEdgeStyle;rounded=0;orthogonalLoop=1;jettySize=auto;html=1;entryX=0.25;entryY=0;entryDx=0;entryDy=0;endArrow=ERoneToMany;endFill=0;startArrow=ERzeroToOne;startFill=0;labelBackgroundColor=none;strokeColor=#788AA3;fontColor=default;fontSize=14;" parent="1" source="Q_0pFDTJ4Ten63mDGmTa-72" target="Q_0pFDTJ4Ten63mDGmTa-98" edge="1">
          <mxGeometry relative="1" as="geometry" />
        </mxCell>
        <mxCell id="Q_0pFDTJ4Ten63mDGmTa-72" value="User" style="swimlane;html=1;fontStyle=0;childLayout=stackLayout;horizontal=1;startSize=26;fillColor=#B2C9AB;horizontalStack=0;resizeParent=1;resizeLast=0;collapsible=1;marginBottom=0;swimlaneFillColor=#ffffff;align=center;rounded=0;shadow=0;comic=0;labelBackgroundColor=none;strokeWidth=1;fontFamily=Verdana;fontSize=14;swimlaneLine=1;strokeColor=#788AA3;fontColor=#46495D;" parent="1" vertex="1">
          <mxGeometry x="120" y="180" width="160" height="186" as="geometry" />
        </mxCell>
        <mxCell id="Q_0pFDTJ4Ten63mDGmTa-73" value="user_id" style="shape=partialRectangle;top=0;left=0;right=0;bottom=1;html=1;align=left;verticalAlign=middle;fillColor=none;spacingLeft=34;spacingRight=4;whiteSpace=wrap;overflow=hidden;rotatable=0;points=[[0,0.5],[1,0.5]];portConstraint=eastwest;dropTarget=0;fontStyle=5;labelBackgroundColor=none;strokeColor=#788AA3;fontColor=#46495D;fontSize=14;" parent="Q_0pFDTJ4Ten63mDGmTa-72" vertex="1">
          <mxGeometry y="26" width="160" height="30" as="geometry" />
        </mxCell>
        <mxCell id="Q_0pFDTJ4Ten63mDGmTa-74" value="PK" style="shape=partialRectangle;top=0;left=0;bottom=0;html=1;fillColor=none;align=left;verticalAlign=middle;spacingLeft=4;spacingRight=4;whiteSpace=wrap;overflow=hidden;rotatable=0;points=[];portConstraint=eastwest;part=1;labelBackgroundColor=none;strokeColor=#788AA3;fontColor=#46495D;fontSize=14;" parent="Q_0pFDTJ4Ten63mDGmTa-73" vertex="1" connectable="0">
          <mxGeometry width="30" height="30" as="geometry" />
        </mxCell>
        <mxCell id="Q_0pFDTJ4Ten63mDGmTa-79" value="role_id" style="shape=partialRectangle;top=0;left=0;right=0;bottom=0;html=1;align=left;verticalAlign=top;fillColor=none;spacingLeft=34;spacingRight=4;whiteSpace=wrap;overflow=hidden;rotatable=0;points=[[0,0.5],[1,0.5]];portConstraint=eastwest;dropTarget=0;labelBackgroundColor=none;strokeColor=#788AA3;fontColor=#46495D;fontSize=14;" parent="Q_0pFDTJ4Ten63mDGmTa-72" vertex="1">
          <mxGeometry y="56" width="160" height="26" as="geometry" />
        </mxCell>
        <mxCell id="Q_0pFDTJ4Ten63mDGmTa-80" value="FK" style="shape=partialRectangle;top=0;left=0;bottom=0;html=1;fillColor=none;align=left;verticalAlign=top;spacingLeft=4;spacingRight=4;whiteSpace=wrap;overflow=hidden;rotatable=0;points=[];portConstraint=eastwest;part=1;labelBackgroundColor=none;strokeColor=#788AA3;fontColor=#46495D;fontSize=14;" parent="Q_0pFDTJ4Ten63mDGmTa-79" vertex="1" connectable="0">
          <mxGeometry width="30" height="26" as="geometry" />
        </mxCell>
        <mxCell id="Q_0pFDTJ4Ten63mDGmTa-75" value="username" style="shape=partialRectangle;top=0;left=0;right=0;bottom=0;html=1;align=left;verticalAlign=top;fillColor=none;spacingLeft=34;spacingRight=4;whiteSpace=wrap;overflow=hidden;rotatable=0;points=[[0,0.5],[1,0.5]];portConstraint=eastwest;dropTarget=0;labelBackgroundColor=none;strokeColor=#788AA3;fontColor=#46495D;fontSize=14;" parent="Q_0pFDTJ4Ten63mDGmTa-72" vertex="1">
          <mxGeometry y="82" width="160" height="26" as="geometry" />
        </mxCell>
        <mxCell id="Q_0pFDTJ4Ten63mDGmTa-76" value="" style="shape=partialRectangle;top=0;left=0;bottom=0;html=1;fillColor=none;align=left;verticalAlign=top;spacingLeft=4;spacingRight=4;whiteSpace=wrap;overflow=hidden;rotatable=0;points=[];portConstraint=eastwest;part=1;labelBackgroundColor=none;strokeColor=#788AA3;fontColor=#46495D;fontSize=14;" parent="Q_0pFDTJ4Ten63mDGmTa-75" vertex="1" connectable="0">
          <mxGeometry width="30" height="26" as="geometry" />
        </mxCell>
        <mxCell id="Q_0pFDTJ4Ten63mDGmTa-77" value="password" style="shape=partialRectangle;top=0;left=0;right=0;bottom=0;html=1;align=left;verticalAlign=top;fillColor=none;spacingLeft=34;spacingRight=4;whiteSpace=wrap;overflow=hidden;rotatable=0;points=[[0,0.5],[1,0.5]];portConstraint=eastwest;dropTarget=0;labelBackgroundColor=none;strokeColor=#788AA3;fontColor=#46495D;fontSize=14;" parent="Q_0pFDTJ4Ten63mDGmTa-72" vertex="1">
          <mxGeometry y="108" width="160" height="26" as="geometry" />
        </mxCell>
        <mxCell id="Q_0pFDTJ4Ten63mDGmTa-78" value="" style="shape=partialRectangle;top=0;left=0;bottom=0;html=1;fillColor=none;align=left;verticalAlign=top;spacingLeft=4;spacingRight=4;whiteSpace=wrap;overflow=hidden;rotatable=0;points=[];portConstraint=eastwest;part=1;labelBackgroundColor=none;strokeColor=#788AA3;fontColor=#46495D;fontSize=14;" parent="Q_0pFDTJ4Ten63mDGmTa-77" vertex="1" connectable="0">
          <mxGeometry width="30" height="26" as="geometry" />
        </mxCell>
        <mxCell id="Q_0pFDTJ4Ten63mDGmTa-87" value="email" style="shape=partialRectangle;top=0;left=0;right=0;bottom=0;html=1;align=left;verticalAlign=top;fillColor=none;spacingLeft=34;spacingRight=4;whiteSpace=wrap;overflow=hidden;rotatable=0;points=[[0,0.5],[1,0.5]];portConstraint=eastwest;dropTarget=0;labelBackgroundColor=none;strokeColor=#788AA3;fontColor=#46495D;fontSize=14;" parent="Q_0pFDTJ4Ten63mDGmTa-72" vertex="1">
          <mxGeometry y="134" width="160" height="26" as="geometry" />
        </mxCell>
        <mxCell id="Q_0pFDTJ4Ten63mDGmTa-88" value="" style="shape=partialRectangle;top=0;left=0;bottom=0;html=1;fillColor=none;align=left;verticalAlign=top;spacingLeft=4;spacingRight=4;whiteSpace=wrap;overflow=hidden;rotatable=0;points=[];portConstraint=eastwest;part=1;labelBackgroundColor=none;strokeColor=#788AA3;fontColor=#46495D;fontSize=14;" parent="Q_0pFDTJ4Ten63mDGmTa-87" vertex="1" connectable="0">
          <mxGeometry width="30" height="26" as="geometry" />
        </mxCell>
        <mxCell id="Q_0pFDTJ4Ten63mDGmTa-89" value="registration_date" style="shape=partialRectangle;top=0;left=0;right=0;bottom=0;html=1;align=left;verticalAlign=top;fillColor=none;spacingLeft=34;spacingRight=4;whiteSpace=wrap;overflow=hidden;rotatable=0;points=[[0,0.5],[1,0.5]];portConstraint=eastwest;dropTarget=0;labelBackgroundColor=none;strokeColor=#788AA3;fontColor=#46495D;fontSize=14;" parent="Q_0pFDTJ4Ten63mDGmTa-72" vertex="1">
          <mxGeometry y="160" width="160" height="26" as="geometry" />
        </mxCell>
        <mxCell id="Q_0pFDTJ4Ten63mDGmTa-90" value="" style="shape=partialRectangle;top=0;left=0;bottom=0;html=1;fillColor=none;align=left;verticalAlign=top;spacingLeft=4;spacingRight=4;whiteSpace=wrap;overflow=hidden;rotatable=0;points=[];portConstraint=eastwest;part=1;labelBackgroundColor=none;strokeColor=#788AA3;fontColor=#46495D;fontSize=14;" parent="Q_0pFDTJ4Ten63mDGmTa-89" vertex="1" connectable="0">
          <mxGeometry width="30" height="26" as="geometry" />
        </mxCell>
        <mxCell id="Q_0pFDTJ4Ten63mDGmTa-165" style="edgeStyle=orthogonalEdgeStyle;rounded=0;orthogonalLoop=1;jettySize=auto;html=1;entryX=1;entryY=0.5;entryDx=0;entryDy=0;endArrow=ERoneToMany;endFill=0;startArrow=ERzeroToOne;startFill=0;labelBackgroundColor=none;strokeColor=#788AA3;fontColor=default;fontSize=14;" parent="1" source="Q_0pFDTJ4Ten63mDGmTa-91" target="Q_0pFDTJ4Ten63mDGmTa-2" edge="1">
          <mxGeometry relative="1" as="geometry" />
        </mxCell>
        <mxCell id="Q_0pFDTJ4Ten63mDGmTa-91" value="Keyword" style="swimlane;html=1;fontStyle=0;childLayout=stackLayout;horizontal=1;startSize=26;fillColor=#B2C9AB;horizontalStack=0;resizeParent=1;resizeLast=0;collapsible=1;marginBottom=0;swimlaneFillColor=#ffffff;align=center;rounded=0;shadow=0;comic=0;labelBackgroundColor=none;strokeWidth=1;fontFamily=Verdana;fontSize=14;swimlaneLine=1;strokeColor=#788AA3;fontColor=#46495D;" parent="1" vertex="1">
          <mxGeometry x="701" y="-411" width="160" height="84" as="geometry" />
        </mxCell>
        <mxCell id="Q_0pFDTJ4Ten63mDGmTa-92" value="keyword_id" style="shape=partialRectangle;top=0;left=0;right=0;bottom=1;html=1;align=left;verticalAlign=middle;fillColor=none;spacingLeft=34;spacingRight=4;whiteSpace=wrap;overflow=hidden;rotatable=0;points=[[0,0.5],[1,0.5]];portConstraint=eastwest;dropTarget=0;fontStyle=5;labelBackgroundColor=none;strokeColor=#788AA3;fontColor=#46495D;fontSize=14;" parent="Q_0pFDTJ4Ten63mDGmTa-91" vertex="1">
          <mxGeometry y="26" width="160" height="30" as="geometry" />
        </mxCell>
        <mxCell id="Q_0pFDTJ4Ten63mDGmTa-93" value="PK" style="shape=partialRectangle;top=0;left=0;bottom=0;html=1;fillColor=none;align=left;verticalAlign=middle;spacingLeft=4;spacingRight=4;whiteSpace=wrap;overflow=hidden;rotatable=0;points=[];portConstraint=eastwest;part=1;labelBackgroundColor=none;strokeColor=#788AA3;fontColor=#46495D;fontSize=14;" parent="Q_0pFDTJ4Ten63mDGmTa-92" vertex="1" connectable="0">
          <mxGeometry width="30" height="30" as="geometry" />
        </mxCell>
        <mxCell id="Q_0pFDTJ4Ten63mDGmTa-94" value="keyword" style="shape=partialRectangle;top=0;left=0;right=0;bottom=0;html=1;align=left;verticalAlign=top;fillColor=none;spacingLeft=34;spacingRight=4;whiteSpace=wrap;overflow=hidden;rotatable=0;points=[[0,0.5],[1,0.5]];portConstraint=eastwest;dropTarget=0;labelBackgroundColor=none;strokeColor=#788AA3;fontColor=#46495D;fontSize=14;" parent="Q_0pFDTJ4Ten63mDGmTa-91" vertex="1">
          <mxGeometry y="56" width="160" height="26" as="geometry" />
        </mxCell>
        <mxCell id="Q_0pFDTJ4Ten63mDGmTa-95" value="" style="shape=partialRectangle;top=0;left=0;bottom=0;html=1;fillColor=none;align=left;verticalAlign=top;spacingLeft=4;spacingRight=4;whiteSpace=wrap;overflow=hidden;rotatable=0;points=[];portConstraint=eastwest;part=1;labelBackgroundColor=none;strokeColor=#788AA3;fontColor=#46495D;fontSize=14;" parent="Q_0pFDTJ4Ten63mDGmTa-94" vertex="1" connectable="0">
          <mxGeometry width="30" height="26" as="geometry" />
        </mxCell>
        <mxCell id="Q_0pFDTJ4Ten63mDGmTa-167" style="edgeStyle=orthogonalEdgeStyle;rounded=0;orthogonalLoop=1;jettySize=auto;html=1;entryX=0;entryY=0.5;entryDx=0;entryDy=0;startArrow=ERoneToMany;startFill=0;endArrow=ERzeroToOne;endFill=0;labelBackgroundColor=none;strokeColor=#788AA3;fontColor=default;fontSize=14;" parent="1" source="Q_0pFDTJ4Ten63mDGmTa-98" target="2e49270ec7c68f3f-37" edge="1">
          <mxGeometry relative="1" as="geometry" />
        </mxCell>
        <mxCell id="Q_0pFDTJ4Ten63mDGmTa-98" value="Comment" style="swimlane;html=1;fontStyle=0;childLayout=stackLayout;horizontal=1;startSize=26;fillColor=#B2C9AB;horizontalStack=0;resizeParent=1;resizeLast=0;collapsible=1;marginBottom=0;swimlaneFillColor=#ffffff;align=center;rounded=0;shadow=0;comic=0;labelBackgroundColor=none;strokeWidth=1;fontFamily=Verdana;fontSize=14;swimlaneLine=1;strokeColor=#788AA3;fontColor=#46495D;" parent="1" vertex="1">
          <mxGeometry x="340" y="460" width="160" height="160" as="geometry" />
        </mxCell>
        <mxCell id="Q_0pFDTJ4Ten63mDGmTa-99" value="comment_id" style="shape=partialRectangle;top=0;left=0;right=0;bottom=1;html=1;align=left;verticalAlign=middle;fillColor=none;spacingLeft=34;spacingRight=4;whiteSpace=wrap;overflow=hidden;rotatable=0;points=[[0,0.5],[1,0.5]];portConstraint=eastwest;dropTarget=0;fontStyle=5;labelBackgroundColor=none;strokeColor=#788AA3;fontColor=#46495D;fontSize=14;" parent="Q_0pFDTJ4Ten63mDGmTa-98" vertex="1">
          <mxGeometry y="26" width="160" height="30" as="geometry" />
        </mxCell>
        <mxCell id="Q_0pFDTJ4Ten63mDGmTa-100" value="PK" style="shape=partialRectangle;top=0;left=0;bottom=0;html=1;fillColor=none;align=left;verticalAlign=middle;spacingLeft=4;spacingRight=4;whiteSpace=wrap;overflow=hidden;rotatable=0;points=[];portConstraint=eastwest;part=1;labelBackgroundColor=none;strokeColor=#788AA3;fontColor=#46495D;fontSize=14;" parent="Q_0pFDTJ4Ten63mDGmTa-99" vertex="1" connectable="0">
          <mxGeometry width="30" height="30" as="geometry" />
        </mxCell>
        <mxCell id="Q_0pFDTJ4Ten63mDGmTa-101" value="article_id" style="shape=partialRectangle;top=0;left=0;right=0;bottom=0;html=1;align=left;verticalAlign=top;fillColor=none;spacingLeft=34;spacingRight=4;whiteSpace=wrap;overflow=hidden;rotatable=0;points=[[0,0.5],[1,0.5]];portConstraint=eastwest;dropTarget=0;labelBackgroundColor=none;strokeColor=#788AA3;fontColor=#46495D;fontSize=14;" parent="Q_0pFDTJ4Ten63mDGmTa-98" vertex="1">
          <mxGeometry y="56" width="160" height="26" as="geometry" />
        </mxCell>
        <mxCell id="Q_0pFDTJ4Ten63mDGmTa-102" value="FK" style="shape=partialRectangle;top=0;left=0;bottom=0;html=1;fillColor=none;align=left;verticalAlign=top;spacingLeft=4;spacingRight=4;whiteSpace=wrap;overflow=hidden;rotatable=0;points=[];portConstraint=eastwest;part=1;labelBackgroundColor=none;strokeColor=#788AA3;fontColor=#46495D;fontSize=14;" parent="Q_0pFDTJ4Ten63mDGmTa-101" vertex="1" connectable="0">
          <mxGeometry width="30" height="26" as="geometry" />
        </mxCell>
        <mxCell id="Q_0pFDTJ4Ten63mDGmTa-103" value="user_id" style="shape=partialRectangle;top=0;left=0;right=0;bottom=0;html=1;align=left;verticalAlign=top;fillColor=none;spacingLeft=34;spacingRight=4;whiteSpace=wrap;overflow=hidden;rotatable=0;points=[[0,0.5],[1,0.5]];portConstraint=eastwest;dropTarget=0;labelBackgroundColor=none;strokeColor=#788AA3;fontColor=#46495D;fontSize=14;" parent="Q_0pFDTJ4Ten63mDGmTa-98" vertex="1">
          <mxGeometry y="82" width="160" height="26" as="geometry" />
        </mxCell>
        <mxCell id="Q_0pFDTJ4Ten63mDGmTa-104" value="FK" style="shape=partialRectangle;top=0;left=0;bottom=0;html=1;fillColor=none;align=left;verticalAlign=top;spacingLeft=4;spacingRight=4;whiteSpace=wrap;overflow=hidden;rotatable=0;points=[];portConstraint=eastwest;part=1;labelBackgroundColor=none;strokeColor=#788AA3;fontColor=#46495D;fontSize=14;" parent="Q_0pFDTJ4Ten63mDGmTa-103" vertex="1" connectable="0">
          <mxGeometry width="30" height="26" as="geometry" />
        </mxCell>
        <mxCell id="Q_0pFDTJ4Ten63mDGmTa-105" value="comment_text" style="shape=partialRectangle;top=0;left=0;right=0;bottom=0;html=1;align=left;verticalAlign=top;fillColor=none;spacingLeft=34;spacingRight=4;whiteSpace=wrap;overflow=hidden;rotatable=0;points=[[0,0.5],[1,0.5]];portConstraint=eastwest;dropTarget=0;labelBackgroundColor=none;strokeColor=#788AA3;fontColor=#46495D;fontSize=14;" parent="Q_0pFDTJ4Ten63mDGmTa-98" vertex="1">
          <mxGeometry y="108" width="160" height="26" as="geometry" />
        </mxCell>
        <mxCell id="Q_0pFDTJ4Ten63mDGmTa-106" value="" style="shape=partialRectangle;top=0;left=0;bottom=0;html=1;fillColor=none;align=left;verticalAlign=top;spacingLeft=4;spacingRight=4;whiteSpace=wrap;overflow=hidden;rotatable=0;points=[];portConstraint=eastwest;part=1;labelBackgroundColor=none;strokeColor=#788AA3;fontColor=#46495D;fontSize=14;" parent="Q_0pFDTJ4Ten63mDGmTa-105" vertex="1" connectable="0">
          <mxGeometry width="30" height="26" as="geometry" />
        </mxCell>
        <mxCell id="Q_0pFDTJ4Ten63mDGmTa-107" value="created_at" style="shape=partialRectangle;top=0;left=0;right=0;bottom=0;html=1;align=left;verticalAlign=top;fillColor=none;spacingLeft=34;spacingRight=4;whiteSpace=wrap;overflow=hidden;rotatable=0;points=[[0,0.5],[1,0.5]];portConstraint=eastwest;dropTarget=0;labelBackgroundColor=none;strokeColor=#788AA3;fontColor=#46495D;fontSize=14;" parent="Q_0pFDTJ4Ten63mDGmTa-98" vertex="1">
          <mxGeometry y="134" width="160" height="26" as="geometry" />
        </mxCell>
        <mxCell id="Q_0pFDTJ4Ten63mDGmTa-108" value="" style="shape=partialRectangle;top=0;left=0;bottom=0;html=1;fillColor=none;align=left;verticalAlign=top;spacingLeft=4;spacingRight=4;whiteSpace=wrap;overflow=hidden;rotatable=0;points=[];portConstraint=eastwest;part=1;labelBackgroundColor=none;strokeColor=#788AA3;fontColor=#46495D;fontSize=14;" parent="Q_0pFDTJ4Ten63mDGmTa-107" vertex="1" connectable="0">
          <mxGeometry width="30" height="26" as="geometry" />
        </mxCell>
        <mxCell id="Q_0pFDTJ4Ten63mDGmTa-113" value="ResearchQuestionMapping" style="swimlane;html=1;fontStyle=0;childLayout=stackLayout;horizontal=1;startSize=26;fillColor=#B2C9AB;horizontalStack=0;resizeParent=1;resizeLast=0;collapsible=1;marginBottom=0;swimlaneFillColor=#ffffff;align=center;rounded=0;shadow=0;comic=0;labelBackgroundColor=none;strokeWidth=1;fontFamily=Verdana;fontSize=14;strokeColor=#788AA3;fontColor=#46495D;" parent="1" vertex="1">
          <mxGeometry x="598" y="720" width="284" height="110" as="geometry" />
        </mxCell>
        <mxCell id="Q_0pFDTJ4Ten63mDGmTa-114" value="research_question_mapping_id" style="shape=partialRectangle;top=0;left=0;right=0;bottom=1;html=1;align=left;verticalAlign=middle;fillColor=none;spacingLeft=34;spacingRight=4;whiteSpace=wrap;overflow=hidden;rotatable=0;points=[[0,0.5],[1,0.5]];portConstraint=eastwest;dropTarget=0;fontStyle=5;labelBackgroundColor=none;strokeColor=#788AA3;fontColor=#46495D;fontSize=14;" parent="Q_0pFDTJ4Ten63mDGmTa-113" vertex="1">
          <mxGeometry y="26" width="284" height="30" as="geometry" />
        </mxCell>
        <mxCell id="Q_0pFDTJ4Ten63mDGmTa-115" value="PK" style="shape=partialRectangle;top=0;left=0;bottom=0;html=1;fillColor=none;align=left;verticalAlign=middle;spacingLeft=4;spacingRight=4;whiteSpace=wrap;overflow=hidden;rotatable=0;points=[];portConstraint=eastwest;part=1;labelBackgroundColor=none;strokeColor=#788AA3;fontColor=#46495D;fontSize=14;" parent="Q_0pFDTJ4Ten63mDGmTa-114" vertex="1" connectable="0">
          <mxGeometry width="30" height="30" as="geometry" />
        </mxCell>
        <mxCell id="Q_0pFDTJ4Ten63mDGmTa-116" value="article_id" style="shape=partialRectangle;top=0;left=0;right=0;bottom=0;html=1;align=left;verticalAlign=top;fillColor=none;spacingLeft=34;spacingRight=4;whiteSpace=wrap;overflow=hidden;rotatable=0;points=[[0,0.5],[1,0.5]];portConstraint=eastwest;dropTarget=0;labelBackgroundColor=none;strokeColor=#788AA3;fontColor=#46495D;fontSize=14;" parent="Q_0pFDTJ4Ten63mDGmTa-113" vertex="1">
          <mxGeometry y="56" width="284" height="26" as="geometry" />
        </mxCell>
        <mxCell id="Q_0pFDTJ4Ten63mDGmTa-117" value="FK" style="shape=partialRectangle;top=0;left=0;bottom=0;html=1;fillColor=none;align=left;verticalAlign=top;spacingLeft=4;spacingRight=4;whiteSpace=wrap;overflow=hidden;rotatable=0;points=[];portConstraint=eastwest;part=1;labelBackgroundColor=none;strokeColor=#788AA3;fontColor=#46495D;fontSize=14;" parent="Q_0pFDTJ4Ten63mDGmTa-116" vertex="1" connectable="0">
          <mxGeometry width="30" height="26" as="geometry" />
        </mxCell>
        <mxCell id="Q_0pFDTJ4Ten63mDGmTa-118" value="research_question_id" style="shape=partialRectangle;top=0;left=0;right=0;bottom=0;html=1;align=left;verticalAlign=top;fillColor=none;spacingLeft=34;spacingRight=4;whiteSpace=wrap;overflow=hidden;rotatable=0;points=[[0,0.5],[1,0.5]];portConstraint=eastwest;dropTarget=0;labelBackgroundColor=none;strokeColor=#788AA3;fontColor=#46495D;fontSize=14;" parent="Q_0pFDTJ4Ten63mDGmTa-113" vertex="1">
          <mxGeometry y="82" width="284" height="26" as="geometry" />
        </mxCell>
        <mxCell id="Q_0pFDTJ4Ten63mDGmTa-119" value="FK" style="shape=partialRectangle;top=0;left=0;bottom=0;html=1;fillColor=none;align=left;verticalAlign=top;spacingLeft=4;spacingRight=4;whiteSpace=wrap;overflow=hidden;rotatable=0;points=[];portConstraint=eastwest;part=1;labelBackgroundColor=none;strokeColor=#788AA3;fontColor=#46495D;fontSize=14;" parent="Q_0pFDTJ4Ten63mDGmTa-118" vertex="1" connectable="0">
          <mxGeometry width="30" height="26" as="geometry" />
        </mxCell>
        <mxCell id="Q_0pFDTJ4Ten63mDGmTa-166" style="edgeStyle=orthogonalEdgeStyle;rounded=0;orthogonalLoop=1;jettySize=auto;html=1;entryX=0;entryY=0.5;entryDx=0;entryDy=0;startArrow=ERoneToMany;startFill=0;endArrow=ERmandOne;endFill=0;labelBackgroundColor=none;strokeColor=#788AA3;fontColor=default;fontSize=14;" parent="1" source="Q_0pFDTJ4Ten63mDGmTa-126" target="Q_0pFDTJ4Ten63mDGmTa-114" edge="1">
          <mxGeometry relative="1" as="geometry" />
        </mxCell>
        <mxCell id="Q_0pFDTJ4Ten63mDGmTa-126" value="ResearchQuestionScore" style="swimlane;html=1;fontStyle=0;childLayout=stackLayout;horizontal=1;startSize=26;fillColor=#B2C9AB;horizontalStack=0;resizeParent=1;resizeLast=0;collapsible=1;marginBottom=0;swimlaneFillColor=#ffffff;align=center;rounded=0;shadow=0;comic=0;labelBackgroundColor=none;strokeWidth=1;fontFamily=Verdana;fontSize=14;strokeColor=#788AA3;fontColor=#46495D;" parent="1" vertex="1">
          <mxGeometry x="75" y="691" width="250" height="140" as="geometry" />
        </mxCell>
        <mxCell id="Q_0pFDTJ4Ten63mDGmTa-127" value="research_Question_Score_id" style="shape=partialRectangle;top=0;left=0;right=0;bottom=1;html=1;align=left;verticalAlign=middle;fillColor=none;spacingLeft=34;spacingRight=4;whiteSpace=wrap;overflow=hidden;rotatable=0;points=[[0,0.5],[1,0.5]];portConstraint=eastwest;dropTarget=0;fontStyle=5;labelBackgroundColor=none;strokeColor=#788AA3;fontColor=#46495D;fontSize=14;" parent="Q_0pFDTJ4Ten63mDGmTa-126" vertex="1">
          <mxGeometry y="26" width="250" height="30" as="geometry" />
        </mxCell>
        <mxCell id="Q_0pFDTJ4Ten63mDGmTa-128" value="PK" style="shape=partialRectangle;top=0;left=0;bottom=0;html=1;fillColor=none;align=left;verticalAlign=middle;spacingLeft=4;spacingRight=4;whiteSpace=wrap;overflow=hidden;rotatable=0;points=[];portConstraint=eastwest;part=1;labelBackgroundColor=none;strokeColor=#788AA3;fontColor=#46495D;fontSize=14;" parent="Q_0pFDTJ4Ten63mDGmTa-127" vertex="1" connectable="0">
          <mxGeometry width="30" height="30" as="geometry" />
        </mxCell>
        <mxCell id="Q_0pFDTJ4Ten63mDGmTa-129" value="research_question_mapping_id" style="shape=partialRectangle;top=0;left=0;right=0;bottom=0;html=1;align=left;verticalAlign=top;fillColor=none;spacingLeft=34;spacingRight=4;whiteSpace=wrap;overflow=hidden;rotatable=0;points=[[0,0.5],[1,0.5]];portConstraint=eastwest;dropTarget=0;labelBackgroundColor=none;strokeColor=#788AA3;fontColor=#46495D;fontSize=14;" parent="Q_0pFDTJ4Ten63mDGmTa-126" vertex="1">
          <mxGeometry y="56" width="250" height="26" as="geometry" />
        </mxCell>
        <mxCell id="Q_0pFDTJ4Ten63mDGmTa-130" value="FK" style="shape=partialRectangle;top=0;left=0;bottom=0;html=1;fillColor=none;align=left;verticalAlign=top;spacingLeft=4;spacingRight=4;whiteSpace=wrap;overflow=hidden;rotatable=0;points=[];portConstraint=eastwest;part=1;labelBackgroundColor=none;strokeColor=#788AA3;fontColor=#46495D;fontSize=14;" parent="Q_0pFDTJ4Ten63mDGmTa-129" vertex="1" connectable="0">
          <mxGeometry width="30" height="26" as="geometry" />
        </mxCell>
        <mxCell id="Q_0pFDTJ4Ten63mDGmTa-131" value="score" style="shape=partialRectangle;top=0;left=0;right=0;bottom=0;html=1;align=left;verticalAlign=top;fillColor=none;spacingLeft=34;spacingRight=4;whiteSpace=wrap;overflow=hidden;rotatable=0;points=[[0,0.5],[1,0.5]];portConstraint=eastwest;dropTarget=0;labelBackgroundColor=none;strokeColor=#788AA3;fontColor=#46495D;fontSize=14;" parent="Q_0pFDTJ4Ten63mDGmTa-126" vertex="1">
          <mxGeometry y="82" width="250" height="26" as="geometry" />
        </mxCell>
        <mxCell id="Q_0pFDTJ4Ten63mDGmTa-132" value="" style="shape=partialRectangle;top=0;left=0;bottom=0;html=1;fillColor=none;align=left;verticalAlign=top;spacingLeft=4;spacingRight=4;whiteSpace=wrap;overflow=hidden;rotatable=0;points=[];portConstraint=eastwest;part=1;labelBackgroundColor=none;strokeColor=#788AA3;fontColor=#46495D;fontSize=14;" parent="Q_0pFDTJ4Ten63mDGmTa-131" vertex="1" connectable="0">
          <mxGeometry width="30" height="26" as="geometry" />
        </mxCell>
        <mxCell id="Q_0pFDTJ4Ten63mDGmTa-133" value="last_updated_by_id" style="shape=partialRectangle;top=0;left=0;right=0;bottom=0;html=1;align=left;verticalAlign=top;fillColor=none;spacingLeft=34;spacingRight=4;whiteSpace=wrap;overflow=hidden;rotatable=0;points=[[0,0.5],[1,0.5]];portConstraint=eastwest;dropTarget=0;labelBackgroundColor=none;strokeColor=#788AA3;fontColor=#46495D;fontSize=14;" parent="Q_0pFDTJ4Ten63mDGmTa-126" vertex="1">
          <mxGeometry y="108" width="250" height="32" as="geometry" />
        </mxCell>
        <mxCell id="Q_0pFDTJ4Ten63mDGmTa-134" value="FK" style="shape=partialRectangle;top=0;left=0;bottom=0;html=1;fillColor=none;align=left;verticalAlign=top;spacingLeft=4;spacingRight=4;whiteSpace=wrap;overflow=hidden;rotatable=0;points=[];portConstraint=eastwest;part=1;labelBackgroundColor=none;strokeColor=#788AA3;fontColor=#46495D;fontSize=14;" parent="Q_0pFDTJ4Ten63mDGmTa-133" vertex="1" connectable="0">
          <mxGeometry width="30" height="32" as="geometry" />
        </mxCell>
        <mxCell id="Q_0pFDTJ4Ten63mDGmTa-139" value="" style="html=1;endArrow=ERoneToMany;startArrow=ERzeroToOne;labelBackgroundColor=none;fontFamily=Verdana;fontSize=14;exitX=1;exitY=0.5;exitDx=0;exitDy=0;entryX=0.5;entryY=0;entryDx=0;entryDy=0;edgeStyle=orthogonalEdgeStyle;endFill=0;strokeColor=#788AA3;fontColor=default;" parent="1" source="2e49270ec7c68f3f-20" target="2e49270ec7c68f3f-30" edge="1">
          <mxGeometry width="100" height="100" relative="1" as="geometry">
            <mxPoint x="980" y="300" as="sourcePoint" />
            <mxPoint x="830" y="300" as="targetPoint" />
          </mxGeometry>
        </mxCell>
        <mxCell id="Q_0pFDTJ4Ten63mDGmTa-142" value="" style="html=1;endArrow=ERzeroToMany;startArrow=ERzeroToOne;labelBackgroundColor=none;fontFamily=Verdana;fontSize=14;startFill=0;edgeStyle=orthogonalEdgeStyle;exitX=0.25;exitY=0;exitDx=0;exitDy=0;entryX=1;entryY=0.5;entryDx=0;entryDy=0;strokeColor=#788AA3;fontColor=default;" parent="1" source="2e49270ec7c68f3f-30" target="2e49270ec7c68f3f-85" edge="1">
          <mxGeometry width="100" height="100" relative="1" as="geometry">
            <mxPoint x="740" y="630" as="sourcePoint" />
            <mxPoint x="620" y="210" as="targetPoint" />
          </mxGeometry>
        </mxCell>
        <mxCell id="Q_0pFDTJ4Ten63mDGmTa-145" value="" style="html=1;endArrow=ERoneToMany;startArrow=ERzeroToOne;labelBackgroundColor=none;fontFamily=Verdana;fontSize=14;exitX=0.75;exitY=0;exitDx=0;exitDy=0;entryX=0;entryY=0.5;entryDx=0;entryDy=0;startFill=0;edgeStyle=orthogonalEdgeStyle;endFill=0;strokeColor=#788AA3;fontColor=default;" parent="1" source="2e49270ec7c68f3f-30" target="Q_0pFDTJ4Ten63mDGmTa-26" edge="1">
          <mxGeometry width="100" height="100" relative="1" as="geometry">
            <mxPoint x="830" y="452" as="sourcePoint" />
            <mxPoint x="970" y="520" as="targetPoint" />
          </mxGeometry>
        </mxCell>
        <mxCell id="Q_0pFDTJ4Ten63mDGmTa-150" style="edgeStyle=orthogonalEdgeStyle;rounded=0;orthogonalLoop=1;jettySize=auto;html=1;endArrow=ERzeroToOne;endFill=0;startArrow=ERoneToMany;startFill=0;exitX=1;exitY=0.5;exitDx=0;exitDy=0;entryX=0.2;entryY=1;entryDx=0;entryDy=0;entryPerimeter=0;labelBackgroundColor=none;strokeColor=#788AA3;fontColor=default;fontSize=14;" parent="1" source="Q_0pFDTJ4Ten63mDGmTa-111" target="Q_0pFDTJ4Ten63mDGmTa-55" edge="1">
          <mxGeometry relative="1" as="geometry">
            <mxPoint x="200" y="-100" as="sourcePoint" />
            <mxPoint x="230" y="-50" as="targetPoint" />
          </mxGeometry>
        </mxCell>
        <mxCell id="Q_0pFDTJ4Ten63mDGmTa-157" style="edgeStyle=orthogonalEdgeStyle;rounded=0;orthogonalLoop=1;jettySize=auto;html=1;entryX=0;entryY=0.5;entryDx=0;entryDy=0;startArrow=ERzeroToOne;startFill=0;endArrow=ERoneToMany;endFill=0;labelBackgroundColor=none;strokeColor=#788AA3;fontColor=default;fontSize=14;" parent="1" source="Q_0pFDTJ4Ten63mDGmTa-73" target="2e49270ec7c68f3f-87" edge="1">
          <mxGeometry relative="1" as="geometry" />
        </mxCell>
      </root>
    </mxGraphModel>
  </diagram>
</mxfile>
